<?xml version="1.0" standalone="no"?>
<!DOCTYPE svg PUBLIC "-//W3C//DTD SVG 1.1//EN" "http://www.w3.org/Graphics/SVG/1.1/DTD/svg11.dtd" >
<svg xmlns="http://www.w3.org/2000/svg" xmlns:xlink="http://www.w3.org/1999/xlink" version="1.1">
<metadata>
Created by FontForge 20170924 at Mon Sep 12 22:23:26 2022
 By www
Storytype Studio 2021. All Rights Reserved
</metadata>
<defs>
<font id="Avigea" horiz-adv-x="561" >
  <font-face 
    font-family="Avigea"
    font-weight="400"
    font-stretch="normal"
    units-per-em="1000"
    panose-1="0 0 0 0 0 0 0 0 0 0"
    ascent="800"
    descent="-200"
    x-height="518"
    cap-height="725"
    bbox="-310 -228 1407 964"
    underline-thickness="50"
    underline-position="-125"
    unicode-range="U+0020-F022"
  />
    <missing-glyph />
    <glyph glyph-name="space" unicode=" " horiz-adv-x="250" 
 />
    <glyph glyph-name="exclam" unicode="!" horiz-adv-x="256" 
d="M124 267l-22 144c-9 60 -17 139 -19 199l-2 44c-2 49 29 82 79 82s81 -33 79 -82l-2 -44c-3 -60 -11 -139 -20 -199l-21 -144c-3 -17 -18 -30 -37 -30c-18 0 -33 13 -35 30zM64 85c0 52 43 95 95 95c53 0 96 -43 96 -95c0 -53 -43 -95 -96 -95c-52 0 -95 42 -95 95z" />
    <glyph glyph-name="quotedbl" unicode="&#x22;" horiz-adv-x="224" 
d="M162 495l-11 74c-5 30 -10 71 -11 103l-1 21c-1 26 15 43 42 43c25 0 41 -17 40 -43l-1 -21c-2 -32 -6 -73 -10 -103l-12 -74c-1 -9 -8 -15 -18 -15s-17 6 -18 15zM69 495l-12 74c-5 30 -9 71 -10 103l-1 21c-1 26 15 43 42 43c24 0 41 -17 40 -43l-1 -21
c-2 -32 -6 -73 -10 -103l-12 -74c-1 -9 -8 -15 -18 -15s-17 6 -18 15z" />
    <glyph glyph-name="numbersign" unicode="#" horiz-adv-x="734" 
d="M165 50l34 157h-157l10 52h158l44 208h-157l11 52h157l33 157h52l-33 -157l208 -1l33 158h52l-33 -157h157l-11 -52h-157l-44 -208h156l-10 -52h-158l-33 -157h-52l34 157l-209 -1l-33 -156h-52zM262 259h208l45 208h-209z" />
    <glyph glyph-name="dollar" unicode="$" horiz-adv-x="636" 
d="M370 -52h-42v43c-120 6 -264 55 -264 166c0 67 53 120 116 120c69 0 121 -63 121 -129c0 -38 -17 -62 -45 -84c11 -5 42 -12 72 -12v242c-115 58 -254 122 -254 250c0 109 101 185 254 192v41h42v-41c141 -5 236 -70 236 -163c0 -61 -42 -104 -103 -104
c-62 0 -105 45 -105 109c0 27 8 61 35 83c-11 1 -23 13 -63 13v-212c117 -52 266 -106 266 -255c0 -127 -110 -212 -266 -217v-42zM328 482v188c-58 -11 -96 -46 -96 -89s40 -72 96 -99zM370 56c60 12 108 53 108 101c0 47 -47 82 -108 116v-217z" />
    <glyph glyph-name="percent" unicode="%" horiz-adv-x="658" 
d="M46 556c0 107 64 180 154 180c91 0 151 -73 151 -180c0 -108 -60 -180 -152 -180c-91 0 -153 73 -153 180zM200 0l239 725h63l-238 -725h-64zM126 553c0 -88 28 -147 70 -147c44 0 75 60 75 152c0 87 -29 148 -73 148c-43 0 -72 -61 -72 -153zM353 169
c0 109 64 180 154 180s150 -72 150 -179c0 -108 -60 -180 -151 -180s-153 73 -153 179zM433 168c0 -89 28 -148 70 -148c44 0 75 60 75 151c0 87 -29 149 -73 149c-43 0 -72 -62 -72 -152z" />
    <glyph glyph-name="ampersand" unicode="&#x26;" horiz-adv-x="742" 
d="M147 586c0 102 95 149 192 149c107 0 181 -55 181 -132c0 -57 -40 -96 -90 -96s-91 39 -91 89c0 27 12 68 30 88c-9 8 -20 10 -29 10c-32 0 -48 -24 -48 -66c0 -43 18 -93 44 -142l22 -38c48 -81 117 -160 167 -212c8 32 5 95 32 132c14 20 35 30 55 30
c37 0 72 -34 60 -96c-11 -56 -51 -91 -92 -122l5 -5c65 -62 100 -79 134 -79c11 0 23 2 35 5c-14 -69 -61 -105 -118 -105c-47 0 -102 25 -151 75c-43 -55 -113 -81 -196 -81c-142 0 -237 75 -237 196c0 109 78 176 161 219c-39 62 -66 126 -66 181zM459 98
c-40 48 -140 151 -215 260c-24 -48 -26 -104 -26 -135c0 -135 42 -192 117 -192c46 0 90 22 124 67z" />
    <glyph glyph-name="quotesingle" unicode="'" horiz-adv-x="130" 
d="M69 495l-12 74c-5 30 -9 71 -10 103l-1 21c-1 26 15 43 42 43c24 0 41 -17 40 -43l-1 -21c-2 -32 -6 -73 -10 -103l-12 -74c-1 -9 -8 -15 -18 -15s-17 6 -18 15z" />
    <glyph glyph-name="parenleft" unicode="(" horiz-adv-x="323" 
d="M330 -32c-161 58 -268 215 -268 397c0 183 109 336 268 393v-34c-59 -76 -102 -218 -102 -365c0 -139 39 -276 102 -359v-32z" />
    <glyph glyph-name="parenright" unicode=")" horiz-adv-x="323" 
d="M46 -32v32c64 83 103 220 103 359c0 147 -43 289 -102 365l-1 34c161 -57 268 -210 268 -393c0 -182 -105 -339 -268 -397z" />
    <glyph glyph-name="asterisk" unicode="*" horiz-adv-x="242" 
d="M120 518v74l-60 -38l-20 37l57 31l-57 31l20 36l60 -37v73h41v-73l60 37l20 -36l-57 -31l57 -31l-20 -37l-60 38v-74h-41z" />
    <glyph glyph-name="plus" unicode="+" horiz-adv-x="504" 
d="M241 128v209h-209v52h209v210h52v-210h211v-52h-211v-209h-52z" />
    <glyph glyph-name="comma" unicode="," horiz-adv-x="232" 
d="M107 -90c17 32 22 51 23 80c-50 3 -90 44 -90 97c0 54 40 93 96 93s95 -39 95 -97c0 -72 -57 -160 -93 -192c-7 -6 -15 -9 -24 -4s-11 13 -7 23z" />
    <glyph glyph-name="hyphenminus" unicode="-" horiz-adv-x="451" 
d="M450 337h-430v52h430v-52z" />
    <glyph glyph-name="period" unicode="." horiz-adv-x="231" 
d="M158 -3c-12 -5 -24 -7 -37 -7c-37 0 -73 22 -88 59c-20 48 3 104 52 124c12 5 24 7 37 7c37 0 72 -22 88 -58c20 -49 -3 -105 -52 -125z" />
    <glyph glyph-name="slash" unicode="/" horiz-adv-x="286" 
d="M36 0l195 725h54l-195 -725h-54z" />
    <glyph glyph-name="zero" unicode="0" horiz-adv-x="695" 
d="M62 362c0 225 133 374 320 374c188 0 312 -151 312 -373c0 -224 -125 -373 -314 -373s-318 152 -318 372zM228 359c0 -184 58 -307 146 -307c89 0 154 125 154 314c0 180 -59 308 -149 308s-151 -128 -151 -315z" />
    <glyph glyph-name="one" unicode="1" horiz-adv-x="328" 
d="M313 31l16 -10v-21h-269v21l18 10c20 13 34 37 34 61v500c0 24 -16 40 -41 40h-1v31c97 7 133 21 166 62h42v-633c0 -24 14 -48 35 -61z" />
    <glyph glyph-name="two" unicode="2" horiz-adv-x="574" 
d="M509 189l29 18h21l-32 -207h-456v94c0 155 331 243 331 452c0 87 -56 128 -119 128c-28 0 -40 -8 -50 -13c27 -22 35 -56 35 -83c0 -64 -43 -109 -105 -109c-61 0 -103 43 -103 104c0 98 104 163 246 163c154 0 265 -78 265 -223c0 -281 -414 -269 -414 -347h278
c24 0 54 9 74 23z" />
    <glyph glyph-name="three" unicode="3" horiz-adv-x="589" 
d="M259 332v62c80 0 133 54 133 150c0 75 -31 130 -102 130c-2 0 -26 0 -45 -13c27 -22 36 -56 36 -83c0 -64 -44 -109 -106 -109c-61 0 -103 43 -103 104c0 93 96 163 232 163c117 0 253 -52 253 -191c0 -85 -50 -145 -119 -172c101 -31 150 -93 150 -175
c0 -145 -160 -209 -281 -209c-101 0 -245 44 -245 161c0 64 42 106 103 106c62 0 105 -45 105 -109c0 -27 -8 -61 -35 -83c15 -9 39 -12 60 -12c85 0 128 54 128 125c0 102 -84 155 -164 155z" />
    <glyph glyph-name="four" unicode="4" horiz-adv-x="609" 
d="M32 238l425 487h51v-486c21 3 44 13 59 28l13 13h21l-21 -104h-72v-84c0 -24 13 -49 33 -64l8 -7v-21h-249v21l10 7c19 15 32 40 32 64v84h-310v62zM115 238h227v261z" />
    <glyph glyph-name="five" unicode="5" horiz-adv-x="573" 
d="M98 725h312c24 0 53 11 72 25l20 17h21l-31 -207h-332v-146c42 30 100 46 159 46c126 0 258 -73 258 -240c0 -153 -111 -230 -265 -230c-142 0 -246 65 -246 162c0 62 42 104 103 104c62 0 105 -45 105 -108c0 -28 -8 -62 -35 -84c10 -5 22 -12 50 -12
c63 0 119 40 119 158c0 115 -54 175 -137 175c-36 0 -77 -11 -121 -34l-52 36v338z" />
    <glyph glyph-name="six" unicode="6" horiz-adv-x="598" 
d="M367 736c124 0 200 -69 200 -147c0 -55 -39 -94 -93 -94c-57 0 -96 41 -96 94c0 28 11 54 33 73c-13 13 -31 14 -42 14c-89 -1 -136 -112 -139 -278c33 31 81 48 140 48c136 0 228 -89 228 -222c0 -138 -102 -234 -247 -234c-178 0 -287 144 -287 364
c0 233 120 382 303 382zM235 228c0 -107 44 -176 105 -176c60 0 92 66 92 160c0 105 -39 171 -103 171c-59 0 -94 -59 -94 -155z" />
    <glyph glyph-name="seven" unicode="7" horiz-adv-x="485" 
d="M84 535l-21 -17h-21l31 207h415v-124c-166 -259 -196 -342 -166 -601h-187c11 219 64 341 270 560h-250c-24 0 -53 -11 -71 -25z" />
    <glyph glyph-name="eight" unicode="8" horiz-adv-x="605" 
d="M66 203c0 81 48 146 125 182c-67 34 -109 92 -109 162c0 114 107 189 255 189c152 0 252 -82 252 -193c0 -68 -38 -124 -101 -157c73 -35 117 -97 117 -178c0 -125 -107 -218 -268 -218c-157 0 -271 88 -271 213zM247 546c0 -71 39 -128 87 -131h11c47 4 79 56 79 125
c0 75 -37 134 -87 134c-49 0 -90 -53 -90 -128zM232 196c0 -88 41 -144 101 -144c63 0 106 60 106 149c0 85 -38 147 -95 151h-12c-59 -4 -100 -68 -100 -156z" />
    <glyph glyph-name="nine" unicode="9" horiz-adv-x="598" 
d="M288 -10c-117 0 -192 68 -192 147c0 55 37 93 91 93c57 0 97 -40 97 -93c0 -28 -12 -54 -33 -74c13 -12 31 -13 42 -13c89 1 136 112 139 278c-33 -32 -81 -59 -150 -59c-126 0 -218 90 -218 226c0 144 102 241 248 241c173 0 286 -135 286 -343
c0 -205 -111 -403 -310 -403zM427 491c0 113 -44 183 -105 183c-60 0 -92 -67 -92 -166c0 -110 39 -176 102 -176c60 0 95 59 95 159z" />
    <glyph glyph-name="colon" unicode=":" horiz-adv-x="257" 
d="M58 439c0 61 39 100 98 100c62 0 101 -39 101 -100c0 -59 -39 -98 -101 -98c-59 0 -98 39 -98 98zM58 89c0 59 39 99 98 99c62 0 101 -40 101 -99c0 -60 -39 -99 -101 -99c-59 0 -98 39 -98 99z" />
    <glyph glyph-name="semicolon" unicode=";" horiz-adv-x="255" 
d="M56 439c0 61 39 100 99 100c61 0 100 -39 100 -100c0 -59 -39 -98 -100 -98c-60 0 -99 39 -99 98zM128 -90c15 32 20 51 22 80c-50 3 -90 44 -90 97c0 54 40 93 96 93c55 0 95 -39 95 -97c0 -72 -58 -160 -93 -192c-7 -6 -16 -9 -24 -4c-9 5 -12 13 -6 23z" />
    <glyph glyph-name="less" unicode="&#x3c;" horiz-adv-x="623" 
d="M120 363l497 -185v-55l-583 218v45l583 217v-55z" />
    <glyph glyph-name="equal" unicode="=" horiz-adv-x="506" 
d="M34 472h472v-52h-472v52zM34 306h472v-52h-472v52z" />
    <glyph glyph-name="greater" unicode="&#x3e;" horiz-adv-x="623" 
d="M44 178l499 185l-499 185v55l583 -217v-45l-583 -218v55z" />
    <glyph glyph-name="question" unicode="?" horiz-adv-x="575" 
d="M300 237h-52c0 162 165 206 165 326c0 70 -56 111 -136 111c-42 0 -54 -12 -64 -13c27 -22 35 -56 35 -83c0 -64 -43 -109 -105 -109c-61 0 -103 43 -103 104c0 98 104 163 255 163c166 0 277 -78 277 -199c0 -191 -272 -190 -272 -300zM274 -10c-53 0 -95 42 -95 95
c0 52 42 95 95 95s96 -43 96 -95c0 -53 -43 -95 -96 -95z" />
    <glyph glyph-name="at" unicode="@" horiz-adv-x="827" 
d="M378 37v-52c-179 7 -316 138 -316 360c0 234 152 395 378 395c228 0 389 -163 389 -382c0 -147 -73 -240 -182 -240c-70 0 -122 36 -136 48c-28 -19 -67 -29 -109 -29c-128 0 -221 93 -221 222c0 127 90 213 213 213c61 0 106 -22 129 -58c16 32 45 54 85 54
c19 0 39 -5 67 -20l-12 -37c-11 -40 -20 -95 -20 -138v-101c0 -61 16 -91 48 -91c51 0 86 74 86 173c0 195 -138 333 -336 333c-196 0 -327 -134 -327 -335c0 -180 107 -309 264 -315zM449 199c39 0 62 26 62 62v188c0 36 -23 62 -62 62c-61 0 -103 -61 -103 -155
c0 -97 44 -157 103 -157z" />
    <glyph glyph-name="A" unicode="A" horiz-adv-x="663" 
d="M229 704l-1 1v20h118l247 -636c10 -22 29 -45 50 -58l19 -10v-21h-272v21l9 6c18 15 26 40 16 62l-23 59h-278l-24 -59c-8 -22 -2 -47 16 -62l9 -6v-21h-161v21l19 11c20 12 41 35 49 57l219 547c9 23 4 49 -12 68zM139 210h230l-114 292z" />
    <glyph glyph-name="B" unicode="B" horiz-adv-x="625" 
d="M24 21l9 7c20 15 33 40 33 64v541c0 24 -13 50 -33 64l-9 8v20h322c155 0 247 -73 247 -183c0 -82 -51 -142 -119 -169c100 -31 150 -93 150 -179c0 -117 -93 -194 -247 -194h-353v21zM295 663h-64v-269h64c79 0 132 54 132 135s-53 134 -132 134zM326 332h-95v-270h95
c79 0 132 54 132 135c0 82 -53 135 -132 135z" />
    <glyph glyph-name="C" unicode="C" horiz-adv-x="661" 
d="M399 736c157 0 248 -69 248 -157c0 -67 -53 -120 -119 -120s-118 53 -118 118c0 39 17 73 44 95c-11 1 -23 2 -34 2c-150 0 -232 -125 -232 -295c0 -164 78 -286 233 -286c107 0 189 58 228 145h21c-54 -155 -156 -248 -314 -248c-199 0 -334 147 -334 367
c0 230 148 379 377 379z" />
    <glyph glyph-name="D" unicode="D" horiz-adv-x="625" 
d="M33 697l-9 8v20h260c206 0 341 -140 341 -360c0 -221 -137 -365 -338 -365h-263v21l9 7c20 15 33 40 33 64v541c0 24 -13 50 -33 64zM231 663v-601h31c119 0 197 115 197 305c0 186 -76 296 -192 296h-36z" />
    <glyph glyph-name="E" unicode="E" horiz-adv-x="580" 
d="M356 332h-125v-270h158c60 0 123 33 158 82l15 22h21l-21 -166h-538v21l9 7c20 15 33 40 33 64v541c0 24 -13 50 -33 64l-9 8v20h538l21 -165h-21l-15 21c-35 49 -98 82 -158 82h-158v-269h125c49 0 86 32 92 81v2h21v-228h-21v2c-6 49 -43 81 -92 81z" />
    <glyph glyph-name="F" unicode="F" 
d="M263 28l10 -7v-21h-249v21l9 7c20 15 32 40 32 64v541c0 24 -12 50 -32 64l-9 8v20h538l21 -165h-21l-15 21c-35 49 -98 82 -158 82h-158v-290h125c49 0 86 32 92 81v2h21v-228h-21v2c-6 49 -43 81 -92 81h-125v-219c0 -24 14 -49 32 -64z" />
    <glyph glyph-name="G" unicode="G" horiz-adv-x="680" 
d="M356 -10c-199 0 -334 147 -334 367c0 230 148 379 366 379c94 0 259 -38 259 -159c0 -65 -53 -118 -119 -118s-118 53 -118 118c0 39 17 73 44 95c-11 1 -23 2 -34 2c-150 0 -232 -125 -232 -294c0 -165 78 -287 233 -287c21 0 41 2 60 7v164c0 24 -12 50 -32 65l-9 7v21
h248v-21l-9 -7c-19 -15 -32 -41 -32 -65v-82c-57 -121 -152 -192 -291 -192z" />
    <glyph glyph-name="H" unicode="H" horiz-adv-x="687" 
d="M263 28l10 -7v-21h-249v21l9 7c20 15 33 40 33 64v541c0 24 -13 50 -33 64l-9 8v20h249v-20l-10 -8c-18 -14 -32 -40 -32 -64v-239h248v239c0 24 -12 50 -32 64l-9 8v20h248v-20l-8 -8c-20 -14 -33 -40 -33 -64v-541c0 -24 13 -49 33 -64l8 -7v-21h-248v21l9 7
c20 15 32 40 32 64v240h-248v-240c0 -24 14 -49 32 -64z" />
    <glyph glyph-name="I" unicode="I" horiz-adv-x="273" 
d="M263 28l10 -7v-21h-249v21l9 7c20 15 33 40 33 64v541c0 24 -13 50 -33 64l-9 8v20h249v-20l-10 -8c-18 -14 -32 -40 -32 -64v-541c0 -24 14 -49 32 -64z" />
    <glyph glyph-name="J" unicode="J" horiz-adv-x="515" 
d="M-16 179c0 66 53 120 118 120c67 0 119 -54 119 -120c0 -57 -39 -103 -93 -116c17 -7 35 -11 54 -11c74 0 111 64 111 174v407c0 24 -13 50 -32 64l-10 8v20h249v-20l-8 -8c-20 -14 -33 -40 -33 -64v-356c0 -192 -89 -287 -231 -287c-97 0 -176 44 -222 119
c-14 20 -22 44 -22 70z" />
    <glyph glyph-name="K" unicode="K" horiz-adv-x="633" 
d="M528 644l-188 -207c64 -17 109 -50 148 -134l100 -215c10 -22 32 -43 53 -55l21 -12v-21h-176c-24 0 -48 14 -59 36l-155 326l-41 -45v-225c0 -24 14 -49 32 -64l10 -7v-21h-249v21l9 7c20 15 33 40 33 64v541c0 24 -13 50 -33 64l-9 8v20h249v-20l-10 -8
c-18 -14 -32 -40 -32 -64v-224l213 235c16 17 16 41 -1 59l-2 2v20h177v-20l-26 -14c-22 -10 -48 -30 -64 -47z" />
    <glyph glyph-name="L" unicode="L" horiz-adv-x="558" 
d="M273 705l-10 -8c-18 -14 -32 -40 -32 -64v-571h158c60 0 123 33 158 82l15 22h21l-21 -166h-538v21l9 7c20 15 33 40 33 64v541c0 24 -13 50 -33 64l-9 8v20h249v-20z" />
    <glyph glyph-name="M" unicode="M" horiz-adv-x="863" 
d="M854 28l8 -7v-21h-248v21l9 7c20 15 32 40 32 64v481l-233 -573h-69l-225 568v-476c0 -24 13 -49 32 -64l9 -7v-21h-145v21l9 7c20 15 33 40 33 64v541c0 24 -13 50 -33 64l-9 8v20h221l200 -504l205 504h212v-20l-8 -8c-20 -14 -33 -40 -33 -64v-541
c0 -24 13 -49 33 -64z" />
    <glyph glyph-name="N" unicode="N" horiz-adv-x="685" 
d="M645 633v-633h-64l-453 637v-545c0 -24 13 -49 32 -64l9 -7v-21h-145v21l9 7c20 15 33 40 33 64v541c0 25 -13 51 -33 66l-9 6v20h245l314 -442v350c0 24 -13 50 -33 64l-9 8v20h145v-20l-8 -8c-20 -14 -33 -40 -33 -64z" />
    <glyph glyph-name="O" unicode="O" horiz-adv-x="746" 
d="M20 362c0 225 148 374 363 374c216 0 362 -153 362 -377c0 -225 -146 -369 -359 -369c-215 0 -366 144 -366 372zM186 359c0 -186 78 -307 196 -307c119 0 198 125 198 314c0 187 -77 308 -193 308c-119 0 -201 -125 -201 -315z" />
    <glyph glyph-name="P" unicode="P" horiz-adv-x="630" 
d="M33 697l-9 8v20h385c147 0 236 -77 236 -204c0 -128 -95 -210 -236 -210h-178v-219c0 -24 14 -49 32 -64l10 -7v-21h-249v21l9 7c20 15 33 40 33 64v541c0 24 -13 50 -33 64zM336 663h-105v-290h105c87 0 143 56 143 147c0 88 -53 143 -143 143z" />
    <glyph glyph-name="Q" unicode="Q" horiz-adv-x="752" 
d="M20 362c0 225 148 374 363 374c216 0 362 -153 362 -377c0 -193 -106 -327 -272 -361c62 -17 125 -45 185 -45c13 0 25 1 37 4c26 7 35 16 53 45l17 -10c7 -57 -6 -153 -101 -174c-12 -3 -25 -4 -37 -4c-87 0 -173 61 -272 61c-16 0 -32 -1 -49 -5
c-14 -4 -38 -11 -51 -28l-18 11c6 23 11 105 77 143c-176 28 -294 165 -294 366zM186 359c0 -186 78 -307 196 -307c119 0 198 125 198 314c0 187 -77 308 -193 308c-119 0 -201 -125 -201 -315z" />
    <glyph glyph-name="R" unicode="R" horiz-adv-x="676" 
d="M33 697l-9 8v20h385c147 0 236 -77 236 -204c0 -112 -72 -188 -185 -206l8 -4c31 -18 61 -49 77 -80l76 -143c11 -22 33 -43 54 -55l22 -12v-21h-177c-23 0 -47 15 -59 36l-145 275h-85v-219c0 -24 14 -49 32 -64l10 -7v-21h-249v21l9 7c20 15 33 40 33 64v541
c0 24 -13 50 -33 64zM336 663h-105v-290h105c87 0 143 56 143 147c0 88 -53 143 -143 143z" />
    <glyph glyph-name="S" unicode="S" horiz-adv-x="598" 
d="M293 52c79 0 149 47 149 105c0 140 -404 168 -404 387c0 114 111 192 276 192c152 0 256 -65 256 -163c0 -61 -42 -104 -103 -104c-62 0 -105 45 -105 109c0 27 8 61 35 83c-11 1 -23 13 -64 13c-80 0 -137 -41 -137 -93c0 -138 404 -129 404 -374
c0 -131 -116 -217 -282 -217c-124 0 -290 47 -290 167c0 67 53 120 116 120c69 0 121 -63 121 -129c0 -38 -17 -62 -45 -84c11 -5 43 -12 73 -12z" />
    <glyph glyph-name="T" unicode="T" horiz-adv-x="575" 
d="M390 28l9 -7v-21h-249v21l9 7c19 15 33 40 33 64v571h-45c-60 0 -118 -36 -145 -90l-7 -13h-21l21 165h558l21 -165h-21l-6 13c-27 54 -85 90 -146 90h-44v-571c0 -24 13 -49 33 -64z" />
    <glyph glyph-name="U" unicode="U" horiz-adv-x="673" 
d="M52 277v356c0 24 -13 50 -33 64l-9 8v20h249v-20l-10 -8c-18 -14 -32 -40 -32 -64v-407c0 -105 70 -174 169 -174c113 0 183 90 183 195v386c0 24 -13 50 -33 64l-9 8v20h145v-20l-8 -8c-20 -14 -33 -40 -33 -64v-356c0 -172 -114 -287 -289 -287s-290 115 -290 287z" />
    <glyph glyph-name="V" unicode="V" horiz-adv-x="662" 
d="M201 636l160 -412l165 412c9 23 2 48 -16 63l-9 6v20h161v-20l-19 -11c-21 -12 -40 -35 -50 -58l-254 -636h-69l-248 636c-9 22 -29 46 -49 58l-19 11v20h272v-20l-9 -6c-18 -15 -26 -41 -16 -63z" />
    <glyph glyph-name="W" unicode="W" horiz-adv-x="934" 
d="M201 635l130 -384l79 223l-56 161c-7 23 -27 47 -48 59l-18 11v20h271v-20l-8 -6c-19 -15 -26 -41 -19 -64l131 -384l136 384c8 23 1 49 -18 64l-8 6v20h160v-20l-18 -11c-21 -12 -41 -36 -49 -59l-225 -635h-68l-130 377l-134 -377h-68l-219 635c-7 23 -27 47 -47 59
l-19 11v20h272v-20l-9 -6c-18 -15 -26 -41 -18 -64z" />
    <glyph glyph-name="X" unicode="X" horiz-adv-x="610" 
d="M140 23l2 -2v-21h-169v21l27 13c22 11 46 31 59 51l161 232l-173 321c-12 21 -33 43 -54 54l-23 13v20h282v-20l-5 -4c-18 -17 -23 -42 -12 -63l92 -169l118 171c14 20 12 45 -6 63l-2 2v20h169v-20l-26 -14c-21 -10 -45 -31 -60 -51l-160 -232l173 -321
c11 -21 33 -42 54 -54l22 -12v-21h-281v21l5 4c17 17 23 41 11 62l-91 168l-118 -170c-14 -20 -12 -45 5 -62z" />
    <glyph glyph-name="Y" unicode="Y" horiz-adv-x="589" 
d="M217 638l107 -198l107 198c11 21 8 47 -10 65l-2 2v20h169v-20l-26 -14c-21 -10 -44 -32 -56 -53l-144 -267v-279c0 -24 14 -49 33 -64l9 -7v-21h-249v21l9 7c20 15 33 40 33 64v236l-168 310c-12 21 -33 43 -54 54l-23 13v20h282v-20l-5 -4c-18 -17 -23 -42 -12 -63z
" />
    <glyph glyph-name="Z" unicode="Z" horiz-adv-x="528" 
d="M199 62h135c61 0 124 33 158 82l14 22h21l-21 -166h-496v62l329 601h-135c-60 0 -123 -33 -158 -82l-15 -21h-21l21 165h496v-62z" />
    <glyph glyph-name="bracketleft" unicode="[" horiz-adv-x="310" 
d="M80 -31v788h249v-32h-83v-725h83v-31h-249z" />
    <glyph glyph-name="backslash" unicode="\" horiz-adv-x="286" 
d="M92 725l195 -725h-54l-195 725h54z" />
    <glyph glyph-name="bracketright" unicode="]" horiz-adv-x="310" 
d="M291 757v-788h-249v31h83v725h-83v32h249z" />
    <glyph glyph-name="asciicircum" unicode="^" horiz-adv-x="293" 
d="M199 725l93 -200h-73l-56 147l-57 -147h-74l93 200h74z" />
    <glyph glyph-name="underscore" unicode="_" horiz-adv-x="552" 
d="M552 -73h-472v63h472v-63z" />
    <glyph glyph-name="grave" unicode="`" horiz-adv-x="180" 
d="M111 611l-93 118l94 10l63 -128h-64z" />
    <glyph glyph-name="a" unicode="a" horiz-adv-x="535" 
d="M255 529c112 0 238 -39 238 -195v-250c0 -26 8 -36 28 -36c0 0 15 0 23 14c0 -25 -36 -72 -111 -72c-54 0 -92 25 -103 76c-33 -50 -87 -76 -147 -76c-92 0 -163 60 -163 150c0 184 293 164 300 247c-20 66 -73 88 -108 88c-14 0 -24 -3 -29 -7c17 -14 29 -36 29 -61
c0 -42 -35 -77 -79 -77s-79 35 -79 81c0 69 75 118 201 118zM327 191v122c-50 -36 -141 -53 -141 -139c0 -50 31 -81 63 -81c36 0 72 39 78 98z" />
    <glyph glyph-name="b" unicode="b" horiz-adv-x="586" 
d="M280 -10c-36 0 -75 4 -111 18c-14 6 -28 9 -42 9c-11 0 -22 -2 -31 -6l-27 -11h-41v602c0 24 -13 50 -33 64l-9 8v20l166 31h41v-243c29 29 70 47 128 47c146 0 245 -109 245 -272c0 -160 -96 -267 -286 -267zM193 169c3 -44 38 -117 100 -117c66 0 108 81 108 210
c0 121 -37 204 -101 204c-60 0 -102 -72 -107 -185v-112z" />
    <glyph glyph-name="c" unicode="c" horiz-adv-x="519" 
d="M299 529c117 0 204 -61 204 -137c0 -53 -40 -92 -90 -92c-51 0 -91 39 -91 89c0 29 13 54 33 70c-5 2 -19 7 -38 7c-71 0 -131 -76 -131 -187c0 -110 59 -186 151 -186c96 0 155 79 165 114h21c-27 -110 -93 -217 -239 -217c-136 0 -264 95 -264 261
c0 156 112 278 279 278z" />
    <glyph glyph-name="d" unicode="d" horiz-adv-x="606" 
d="M367 666l-9 8v20l165 31h42v-641c0 -26 8 -36 28 -36c0 0 15 0 24 14c0 -25 -37 -72 -112 -72c-50 0 -85 20 -100 65c-31 -41 -76 -65 -143 -65c-140 0 -236 107 -236 267c0 163 100 272 246 272c58 0 98 -18 127 -47v120c0 24 -12 50 -32 64zM294 52c58 0 99 70 105 179
v56c-6 110 -48 179 -107 179c-64 0 -100 -83 -100 -204c0 -129 41 -210 102 -210z" />
    <glyph glyph-name="e" unicode="e" horiz-adv-x="529" 
d="M313 529c148 0 213 -81 213 -172c0 -113 -97 -198 -229 -198c-27 0 -55 4 -84 11c25 -49 69 -77 126 -77c96 0 155 79 165 114h21c-32 -130 -117 -217 -250 -217c-146 0 -253 103 -253 261c0 166 117 278 291 278zM198 202c210 60 206 264 110 264
c-60 0 -120 -76 -120 -187c0 -28 4 -54 10 -77z" />
    <glyph glyph-name="f" unicode="f" horiz-adv-x="285" 
d="M61 92l1 364h-39v62h39v30c0 135 81 188 200 188c114 0 167 -49 167 -115c0 -55 -35 -91 -80 -91s-81 36 -81 80c0 26 11 49 30 64c-5 4 -13 6 -21 6c-37 0 -50 -47 -50 -142v-20h67v-62h-67v-364c0 -24 13 -49 32 -64l10 -7v-21h-249v21l9 7c20 15 32 40 32 64z" />
    <glyph glyph-name="g" unicode="g" horiz-adv-x="554" 
d="M19 313c0 129 109 216 262 216c20 0 39 -1 56 -5c-10 78 45 143 122 137c75 -5 88 -72 67 -104c-11 -17 -29 -22 -45 -22c-14 0 -27 4 -34 6s-13 3 -19 3c-21 0 -35 -15 -45 -30c95 -30 154 -103 154 -199c0 -128 -103 -222 -258 -222c-55 0 -104 12 -145 33
c-3 -18 30 -35 105 -40c120 -9 327 14 327 -134c0 -102 -101 -170 -255 -170c-122 0 -275 43 -294 159c-1 4 -1 7 -1 11c0 42 34 75 76 75c41 0 75 -33 75 -75c0 -29 -16 -55 -41 -67c33 -24 83 -40 145 -40c75 0 126 23 126 69c0 71 -126 77 -209 95
c-123 29 -141 87 -86 138c-52 40 -83 98 -83 166zM185 313c0 -91 39 -158 94 -158c56 0 93 65 93 155c0 93 -40 156 -94 156s-93 -62 -93 -153z" />
    <glyph glyph-name="h" unicode="h" horiz-adv-x="597" 
d="M385 105v228c0 73 -28 117 -78 117c-47 0 -81 -43 -88 -109v-249c0 -24 14 -49 32 -64l10 -7v-21h-249v21l9 7c20 15 33 40 33 64v510c0 24 -13 50 -33 64l-9 8v20l166 31h41v-286c36 56 96 90 167 90c107 0 165 -75 165 -186v-259c0 -26 8 -36 28 -36c0 0 15 0 24 14
c0 -25 -37 -72 -112 -72c-66 0 -106 36 -106 115z" />
    <glyph glyph-name="i" unicode="i" horiz-adv-x="265" 
d="M49 640c0 52 43 96 95 96c53 0 96 -44 96 -96s-43 -95 -96 -95c-52 0 -95 43 -95 95zM259 28l10 -7v-21h-249v21l9 7c20 15 33 40 33 64v303c0 24 -13 50 -33 64l-9 7v21l166 31h41v-426c0 -24 14 -49 32 -64z" />
    <glyph glyph-name="j" unicode="j" horiz-adv-x="248" 
d="M-120 640c0 52 42 96 95 96s95 -44 95 -96s-42 -95 -95 -95s-95 43 -95 95zM-140 459l-8 7v21l164 31h42v-548c0 -135 -82 -188 -200 -188c-114 0 -168 49 -168 115c0 55 36 92 81 92s82 -37 82 -81c0 -26 -13 -49 -30 -63c4 -5 11 -7 20 -7c37 0 50 47 50 142v415
c0 24 -13 50 -33 64z" />
    <glyph glyph-name="k" unicode="k" horiz-adv-x="543" 
d="M334 37l-97 240l-18 -15v-170c0 -24 14 -49 32 -64l10 -7v-21h-249v21l9 7c20 15 33 40 33 64v510c0 24 -13 50 -33 64l-9 8v20l166 31h41v-400l142 115c19 16 21 38 4 56l-1 1v21h170v-21l-28 -13c-21 -10 -49 -28 -68 -44l-144 -117l2 -1c65 -20 125 -76 151 -140
l38 -93c9 -23 30 -44 50 -56l24 -12v-21h-170c-24 0 -45 15 -55 37z" />
    <glyph glyph-name="l" unicode="l" horiz-adv-x="261" 
d="M251 28l10 -7v-21h-249v21l9 7c20 15 33 40 33 64v510c0 24 -13 50 -33 64l-9 8v20l166 31h41v-633c0 -24 14 -49 32 -64z" />
    <glyph glyph-name="m" unicode="m" horiz-adv-x="871" 
d="M560 28l9 -7v-21h-207v333c0 38 -10 117 -63 117c-50 0 -68 -65 -72 -110v-248c0 -24 14 -49 32 -64l10 -7v-21h-249v21l9 7c20 15 33 40 33 64v303c0 24 -13 50 -33 64l-9 7v21l166 31h41v-70c29 47 77 81 144 81c78 0 124 -45 144 -106c28 65 85 106 157 106
c99 0 156 -75 156 -186v-259c0 -26 9 -36 28 -36c0 0 16 0 24 14c0 -25 -36 -72 -112 -72c-66 0 -105 36 -105 115v228c0 71 -25 117 -64 117c-40 0 -72 -52 -71 -130v-228c0 -24 12 -49 32 -64z" />
    <glyph glyph-name="n" unicode="n" horiz-adv-x="601" 
d="M393 105v228c0 73 -28 117 -78 117c-47 0 -81 -43 -88 -109v-249c0 -24 14 -49 32 -64l10 -7v-21h-249v21l9 7c20 15 33 40 33 64v303c0 24 -13 50 -33 64l-9 7v21l166 31h41v-79c36 56 96 90 167 90c107 0 165 -75 165 -186v-259c0 -26 8 -36 28 -36c0 0 15 0 24 14
c0 -25 -37 -72 -112 -72c-66 0 -106 36 -106 115z" />
    <glyph glyph-name="o" unicode="o" 
d="M22 259c0 162 110 270 273 270c161 0 266 -107 266 -266c0 -161 -108 -273 -271 -273c-159 0 -268 109 -268 269zM188 257c0 -124 41 -205 102 -205c63 0 105 83 105 207c0 126 -42 207 -104 207c-61 0 -103 -83 -103 -209z" />
    <glyph glyph-name="p" unicode="p" horiz-adv-x="601" 
d="M253 -179l10 -8v-20h-249v20l9 8c20 14 33 40 33 64v510c0 24 -13 50 -33 64l-9 7v21l166 31h41v-37c29 29 70 47 128 47c146 0 245 -109 245 -272c0 -160 -96 -267 -236 -267c-61 0 -106 20 -137 56v-160c0 -24 14 -50 32 -64zM326 51c61 0 103 80 103 210
c0 120 -37 204 -101 204c-60 0 -102 -72 -107 -184v-45c5 -112 46 -185 105 -185z" />
    <glyph glyph-name="q" unicode="q" horiz-adv-x="586" 
d="M604 -207h-248v20l9 8c20 14 32 40 32 64v151c-29 -29 -69 -46 -127 -46c-146 0 -246 108 -246 271c0 160 96 268 286 268c36 0 76 -5 111 -19c14 -6 30 -8 43 -8c12 0 22 1 31 5l26 11h42v-633c0 -24 13 -50 32 -64l9 -8v-20zM190 256c0 -120 36 -204 100 -204
c62 0 103 72 107 185v112c-3 44 -37 117 -99 117c-67 0 -108 -80 -108 -210z" />
    <glyph glyph-name="r" unicode="r" horiz-adv-x="442" 
d="M259 28l10 -7v-21h-249v21l9 7c20 15 33 40 33 64v303c0 24 -13 50 -33 64l-9 7v21l166 31h41v-42c28 33 70 53 115 53c91 0 139 -79 101 -147c-20 -33 -54 -48 -88 -48c-20 0 -39 5 -55 14c-19 11 -47 35 -42 94c-16 -3 -29 -19 -31 -54v-296c0 -24 14 -49 32 -64z" />
    <glyph glyph-name="s" unicode="s" horiz-adv-x="468" 
d="M303 100c0 96 -258 128 -258 282c0 90 84 147 212 147c131 0 197 -61 197 -120c0 -41 -31 -72 -70 -72c-40 0 -71 31 -71 70c0 22 10 43 26 55c-8 9 -35 18 -64 18c-46 0 -72 -24 -72 -53c0 -93 259 -119 259 -287c0 -94 -81 -150 -217 -150c-144 0 -225 62 -225 130
c0 46 35 82 80 82c43 0 79 -36 79 -80c0 -25 -12 -46 -29 -61c10 -7 28 -16 66 -16c60 0 87 23 87 55z" />
    <glyph glyph-name="t" unicode="t" horiz-adv-x="282" 
d="M57 105v351h-47v62h47c64 0 103 32 103 93h62v-93h59v-62h-59v-372c0 -26 9 -36 28 -36c0 0 16 0 24 14c0 -25 -36 -72 -112 -72c-66 0 -105 36 -105 115z" />
    <glyph glyph-name="u" unicode="u" horiz-adv-x="597" 
d="M547 83c0 -25 8 -35 28 -35c0 0 15 0 24 14c0 -25 -37 -72 -112 -72c-59 0 -98 29 -105 90c-35 -56 -95 -90 -168 -90c-106 0 -164 74 -164 185v220c0 24 -13 50 -33 64l-9 7v21l166 31h41v-332c0 -74 28 -118 78 -118c47 0 81 41 88 106v229c-3 22 -14 44 -32 56l-9 7
v21l165 31h42v-435z" />
    <glyph glyph-name="v" unicode="v" horiz-adv-x="507" 
d="M15 490l-9 7v21h207v-312c0 -96 14 -138 67 -138c96 0 160 134 157 337c-57 -7 -100 29 -100 74c0 39 33 71 78 71c40 0 91 -25 82 -176c-11 -215 -124 -384 -277 -384c-105 0 -172 78 -172 206v230c0 24 -13 50 -33 64z" />
    <glyph glyph-name="w" unicode="w" horiz-adv-x="838" 
d="M15 490l-9 7v21h207v-332c0 -74 28 -118 78 -118c66 0 88 73 88 128v230c0 24 -12 50 -32 64l-9 7v21h207v-312c0 -96 13 -138 66 -138c97 0 161 134 158 337c-57 -7 -101 29 -101 74c0 39 33 71 79 71c39 0 90 -25 82 -176c-12 -215 -124 -384 -278 -384
c-78 0 -134 42 -158 116c-30 -73 -98 -116 -181 -116c-106 0 -164 74 -164 185v251c0 24 -13 50 -33 64z" />
    <glyph glyph-name="x" unicode="x" horiz-adv-x="538" 
d="M514 33l24 -12v-21h-287v21l5 4c17 15 21 40 9 62l-45 76l-65 -80c-14 -19 -14 -44 1 -62v-21h-170v21l30 14c23 10 48 29 62 48l110 135l-126 213c-12 22 -34 43 -56 54l-24 12v21h286v-21l-4 -3c-18 -16 -21 -41 -9 -63l45 -75l64 79c16 19 15 44 -1 62v21h170v-21
l-30 -13c-21 -10 -46 -30 -62 -49l-109 -134l126 -214c12 -22 35 -42 56 -54z" />
    <glyph glyph-name="y" unicode="y" horiz-adv-x="511" 
d="M-3 490l-9 7v21h207v-312c0 -96 13 -138 66 -138c97 0 161 134 158 337c-57 -7 -101 29 -101 74c0 39 33 71 79 71c39 0 90 -25 82 -192c-16 -284 -180 -586 -369 -586c-86 0 -140 49 -140 115c0 55 36 91 81 91s82 -36 82 -81c0 -26 -13 -48 -30 -63c4 -4 11 -6 22 -6
c69 0 152 103 212 212c-39 -32 -86 -50 -136 -50c-105 0 -172 78 -172 206v230c0 24 -12 50 -32 64z" />
    <glyph glyph-name="z" unicode="z" horiz-adv-x="449" 
d="M205 62h89c43 0 90 22 118 55l5 7h21l-21 -124h-405v62l244 394h-90c-42 0 -89 -22 -117 -55l-6 -7h-21l21 124h405v-62z" />
    <glyph glyph-name="braceleft" unicode="{" horiz-adv-x="283" 
d="M289 -32c-185 4 -208 80 -208 177c0 164 65 196 -9 196v44c82 0 9 45 9 210c0 95 24 161 208 164v-34c-55 0 -42 -68 -42 -176c0 -88 8 -145 -51 -178c59 -25 51 -91 51 -154c0 -108 -25 -217 42 -217v-32z" />
    <glyph glyph-name="bar" unicode="|" horiz-adv-x="122" 
d="M122 -104h-42v829h42v-829z" />
    <glyph glyph-name="braceright" unicode="}" horiz-adv-x="283" 
d="M277 341c-74 0 -10 -32 -10 -196c0 -97 -22 -173 -207 -177v32c65 0 42 109 42 217c0 63 -9 129 49 154c-59 33 -49 90 -49 178c0 108 12 176 -42 176v34c182 -3 207 -69 207 -164c0 -165 -72 -210 10 -210v-44z" />
    <glyph glyph-name="asciitilde" unicode="~" horiz-adv-x="489" 
d="M108 347c-11 0 -46 -1 -76 -31c5 71 48 113 112 113c71 0 175 -51 258 -51c11 0 54 1 86 26c0 -68 -43 -108 -113 -108c-79 0 -185 51 -267 51z" />
    <glyph glyph-name="nbspace" unicode="&#xa0;" horiz-adv-x="250" 
 />
    <glyph glyph-name="exclamdown" unicode="&#xa1;" horiz-adv-x="246" 
d="M54 433c0 53 43 96 95 96c53 0 96 -43 96 -96c0 -52 -43 -95 -96 -95c-52 0 -95 43 -95 95zM92 108l22 143c2 17 17 30 35 30c19 0 34 -13 37 -30l21 -143c9 -60 17 -140 20 -200l2 -44c2 -49 -29 -82 -79 -82s-81 33 -79 82l2 44c2 60 10 140 19 200z" />
    <glyph glyph-name="cent" unicode="&#xa2;" 
d="M349 -101h-41v91c-133 6 -252 100 -252 261c0 146 96 260 252 275v94h41v-91c117 -1 211 -57 211 -137c0 -53 -41 -92 -90 -92c-51 0 -92 39 -92 89c0 29 14 54 34 70c-16 5 -32 7 -46 7c-6 0 -11 0 -17 -1v-370c8 -2 16 -2 24 -2c96 0 155 79 165 114h21
c-25 -102 -84 -203 -210 -216v-92zM308 108v345c-52 -27 -86 -90 -86 -174c0 -81 32 -144 86 -171z" />
    <glyph glyph-name="sterling" unicode="&#xa3;" horiz-adv-x="576" 
d="M240 76l-14 -14h127c60 0 123 33 158 82l15 22h20l-20 -166h-455v21l9 7c20 15 32 40 32 64v245h-60v52h60v15c0 200 66 332 252 332c134 0 209 -69 209 -147c0 -55 -38 -94 -92 -94c-57 0 -96 41 -96 94c0 28 11 54 33 73c-14 13 -31 14 -43 14
c-89 -1 -97 -112 -97 -278v-9h142v-52h-142v-168c0 -32 -16 -70 -38 -93z" />
    <glyph glyph-name="currency" unicode="&#xa4;" horiz-adv-x="420" 
d="M74 363c0 37 12 71 34 98l-58 58l29 29l58 -58c27 21 61 33 98 33s71 -12 98 -33l58 58l29 -29l-58 -58c21 -28 33 -61 33 -98s-12 -71 -33 -98l58 -59l-29 -29l-58 58c-27 -20 -61 -33 -98 -33s-71 13 -98 33l-58 -58l-29 29l58 59c-22 27 -34 61 -34 98zM127 363
c0 -59 47 -109 108 -109c60 0 108 50 108 109c0 60 -48 109 -108 109c-61 0 -108 -49 -108 -109z" />
    <glyph glyph-name="yen" unicode="&#xa5;" horiz-adv-x="660" 
d="M289 638l107 -198l107 198c11 21 8 47 -10 65l-2 2v20h169v-20l-26 -14c-21 -10 -44 -32 -56 -53l-144 -267v-117h143v-52h-143v-52h143v-51h-143v-7c0 -24 14 -49 33 -64l9 -7v-21h-249v21l9 7c20 15 33 40 33 64v7h-163v51h163v52h-163v52h163v72l-168 312
c-12 21 -33 43 -54 54l-23 13v20h282v-20l-5 -4c-18 -17 -23 -42 -12 -63z" />
    <glyph glyph-name="section" unicode="&#xa7;" horiz-adv-x="509" 
d="M194 61c10 -7 28 -16 66 -16c60 0 87 23 87 55c0 96 -258 128 -258 282c0 50 27 91 72 115c-41 31 -72 64 -72 108c0 74 84 131 212 131c131 0 197 -60 197 -119c0 -42 -31 -73 -70 -73c-40 0 -71 31 -71 71c0 21 10 42 26 55c-8 8 -35 17 -64 17c-46 0 -72 -24 -72 -53
c0 -93 259 -119 259 -287c0 -48 -22 -87 -63 -113c37 -30 63 -64 63 -109c0 -79 -81 -135 -217 -135c-144 0 -225 62 -225 130c0 46 35 82 80 82c43 0 79 -36 79 -80c0 -25 -12 -46 -29 -61zM346 302c1 4 1 9 1 15c0 53 -45 89 -96 123c-2 -7 -4 -13 -4 -21
c0 -49 46 -83 99 -117z" />
    <glyph glyph-name="dieresis" unicode="&#xa8;" horiz-adv-x="294" 
d="M169 663c0 38 25 62 62 62s62 -24 62 -62c0 -37 -25 -62 -62 -62s-62 25 -62 62zM34 663c0 38 25 62 62 62c38 0 62 -24 62 -62c0 -37 -24 -62 -62 -62c-37 0 -62 25 -62 62z" />
    <glyph glyph-name="copyright" unicode="&#xa9;" horiz-adv-x="784" 
d="M422 0c-201 0 -364 163 -364 363s163 362 364 362c200 0 361 -162 361 -362s-161 -363 -361 -363zM421 674c-171 0 -311 -140 -311 -311s140 -311 311 -311c172 0 311 140 311 311s-139 311 -311 311zM149 354c0 157 112 278 279 278c117 0 204 -60 204 -137
c0 -52 -40 -92 -90 -92c-51 0 -91 40 -91 89c0 29 13 54 34 71c-17 5 -32 7 -44 7c-66 0 -126 -77 -126 -188c0 -109 59 -185 151 -185c96 0 155 79 165 114h21c-26 -110 -92 -218 -238 -218c-137 0 -265 96 -265 261z" />
    <glyph glyph-name="ordfeminine" unicode="&#xaa;" horiz-adv-x="295" 
d="M158 736c54 0 114 -19 114 -93v-121c0 -12 4 -16 13 -16c0 0 8 0 12 6c0 -11 -18 -34 -54 -34c-26 0 -44 11 -49 36c-15 -24 -41 -36 -70 -36c-45 0 -78 29 -78 71c0 89 140 79 143 118c-9 33 -34 43 -51 43c-7 0 -12 -1 -14 -3c8 -6 13 -18 13 -29
c0 -21 -16 -38 -37 -38s-37 17 -37 40c0 32 35 56 95 56zM192 587l1 45c-25 -17 -68 -25 -68 -66c0 -24 15 -38 31 -38s34 18 36 46v13z" />
    <glyph glyph-name="guillemotleft" unicode="&#xab;" horiz-adv-x="496" 
d="M415 158l-205 205l205 205l74 -74l-132 -131l132 -132zM239 158l-205 205l205 205l74 -74l-132 -131l132 -132z" />
    <glyph glyph-name="softhyphen" unicode="&#xad;" horiz-adv-x="0" 
 />
    <glyph glyph-name="registered" unicode="&#xae;" horiz-adv-x="784" 
d="M58 363c0 200 163 362 364 362c200 0 361 -162 361 -362s-161 -363 -361 -363c-201 0 -364 163 -364 363zM110 363c0 -171 140 -311 311 -311c172 0 311 140 311 311s-139 311 -311 311c-171 0 -311 -140 -311 -311zM223 568l-5 4v13h235c90 0 145 -48 145 -125
c0 -69 -45 -116 -113 -126l4 -3c19 -11 37 -30 48 -49l45 -88c8 -13 21 -26 35 -33l12 -8v-12h-108c-14 0 -29 8 -36 22l-88 168h-53v-134c0 -15 8 -30 20 -39l6 -5v-12h-152v12l5 5c12 9 20 24 20 39v332c0 14 -8 30 -20 39zM408 547h-64v-178h64c54 0 88 34 88 90
c0 54 -32 88 -88 88z" />
    <glyph glyph-name="macron" unicode="&#xaf;" horiz-adv-x="267" 
d="M266 611h-240v67h240v-67z" />
    <glyph glyph-name="degree" unicode="&#xb0;" horiz-adv-x="268" 
d="M44 614c0 61 51 111 112 111c62 0 112 -50 112 -111c0 -63 -50 -111 -112 -111c-61 0 -112 48 -112 111zM129 614c0 -15 12 -26 27 -26c14 0 27 11 27 26c0 14 -13 26 -27 26c-15 0 -27 -12 -27 -26z" />
    <glyph glyph-name="plusminus" unicode="&#xb1;" horiz-adv-x="518" 
d="M255 166v209h-209v52h209v210h52v-210h211v-52h-211v-209h-52zM46 140h472v-52h-472v52z" />
    <glyph glyph-name="acute" unicode="&#xb4;" horiz-adv-x="180" 
d="M185 729l-94 -118h-63l62 128z" />
    <glyph glyph-name="paragraph" unicode="&#xb6;" horiz-adv-x="503" 
d="M481 20l17 -20h-194l17 20c14 19 24 47 24 72v525h-9v-346h-70c-112 0 -216 83 -216 222c0 128 87 232 216 232h232l-17 -19c-14 -20 -25 -48 -25 -73v-541c0 -25 11 -53 25 -72z" />
    <glyph glyph-name="cedilla" unicode="&#xb8;" horiz-adv-x="34" 
d="M-209 -167c-17 21 -10 51 7 51c4 0 8 -1 13 -5c13 -11 23 -32 57 -32c31 0 46 18 46 45c0 19 -7 34 -27 34h-21l17 78h42l-12 -56c27 3 54 -21 54 -60c0 -47 -38 -85 -97 -85c-37 0 -67 15 -79 30z" />
    <glyph glyph-name="ordmasculine" unicode="&#xba;" horiz-adv-x="310" 
d="M46 604c0 79 54 132 133 132c78 0 130 -52 130 -130s-53 -133 -132 -133c-78 0 -131 52 -131 131zM127 603c0 -61 21 -100 51 -100s50 41 50 101c0 61 -20 102 -50 102s-51 -41 -51 -103z" />
    <glyph glyph-name="guillemotright" unicode="&#xbb;" horiz-adv-x="496" 
d="M327 363l-205 -205l-74 73l132 132l-132 131l74 74zM503 363l-205 -205l-74 73l132 132l-132 131l74 74z" />
    <glyph glyph-name="questiondown" unicode="&#xbf;" horiz-adv-x="527" 
d="M317 529c53 0 96 -43 96 -96c0 -52 -43 -95 -96 -95c-52 0 -95 43 -95 95c0 53 43 96 95 96zM292 281h51c0 -162 -164 -205 -164 -326c0 -70 56 -110 135 -110c43 0 54 11 66 12c-28 22 -37 56 -37 83c0 64 44 109 106 109c61 0 103 -43 103 -104
c0 -97 -104 -163 -255 -163c-166 0 -277 78 -277 199c0 191 272 190 272 300z" />
    <glyph glyph-name="AE" unicode="&#xc6;" horiz-adv-x="904" 
d="M644 332h-124v-270h157c60 0 124 33 159 82l14 22h21l-21 -166h-537v21l9 7c20 15 32 40 32 64v56h-235l-29 -59c-8 -22 -2 -47 16 -62l9 -6v-21h-161v21l19 11c20 12 39 35 49 57l271 547c11 22 4 49 -13 68l-1 1v20h571l21 -165h-21l-14 21c-35 49 -98 82 -159 82h-157
v-269h124c50 0 86 32 92 81v2h21v-228h-21v2c-6 49 -42 81 -92 81zM149 210h205v425z" />
    <glyph glyph-name="Eth" unicode="&#xd0;" horiz-adv-x="654" 
d="M51 697l-9 8v20h260c206 0 341 -140 341 -360c0 -221 -137 -365 -338 -365h-263v21l9 7c20 15 32 40 32 64v245h-83v52h83v244c0 24 -12 50 -32 64zM249 663v-274h105v-52h-105v-275h31c118 0 197 115 197 305c0 186 -77 296 -193 296h-35z" />
    <glyph glyph-name="multiply" unicode="&#xd7;" horiz-adv-x="415" 
d="M44 215l149 148l-149 148l37 37l149 -149l148 149l37 -37l-149 -148l149 -148l-37 -38l-148 149l-149 -149z" />
    <glyph glyph-name="Oslash" unicode="&#xd8;" horiz-adv-x="752" 
d="M26 362c0 225 148 374 363 374c89 0 166 -26 226 -72l50 61h54l-73 -88c67 -66 105 -162 105 -278c0 -225 -146 -369 -359 -369c-90 0 -169 26 -230 71l-52 -61h-54l75 88c-67 65 -105 159 -105 274zM192 359c0 -64 9 -121 26 -166l322 384c-33 61 -85 97 -147 97
c-119 0 -201 -125 -201 -315zM560 535l-324 -385c35 -62 87 -98 152 -98c119 0 198 125 198 314c0 65 -10 122 -26 169z" />
    <glyph glyph-name="Thorn" unicode="&#xde;" horiz-adv-x="629" 
d="M263 28l10 -7v-21h-249v21l9 7c20 15 33 40 33 64v541c0 24 -13 50 -33 64l-9 8v20h249v-20l-10 -8c-18 -14 -32 -40 -32 -64v-63h174c148 0 237 -78 237 -204c0 -129 -95 -211 -237 -211h-174v-63c0 -24 14 -49 32 -64zM231 508v-290h102c87 0 143 56 143 147
c0 88 -53 143 -143 143h-102z" />
    <glyph glyph-name="germandbls" unicode="&#xdf;" horiz-adv-x="615" 
d="M425 0c-69 0 -113 23 -140 61c-54 72 -12 147 46 130c68 -20 62 -141 97 -141c21 0 28 38 28 83c0 218 -140 176 -140 243c0 44 57 51 57 170c0 82 -26 139 -72 138c-50 0 -72 -63 -72 -164v-520h-207v21l9 7c20 15 33 40 33 64v345h-42v52h42v4c0 182 124 243 240 243
c128 0 214 -74 214 -178c0 -129 -130 -136 -130 -177c0 -55 234 -18 234 -204c0 -104 -74 -177 -197 -177z" />
    <glyph glyph-name="ae" unicode="&#xe6;" horiz-adv-x="840" 
d="M255 529c66 0 136 -14 183 -55c48 35 112 55 185 55c148 0 213 -81 213 -172c0 -113 -97 -198 -229 -198c-27 0 -55 4 -84 11c25 -49 69 -77 126 -77c95 0 154 79 165 114h21c-33 -130 -118 -217 -250 -217c-104 0 -187 52 -227 138c-25 -91 -93 -138 -175 -138
c-92 0 -163 60 -163 150c0 184 293 164 300 247c-20 66 -73 88 -108 88c-14 0 -24 -3 -29 -7c17 -14 29 -36 29 -61c0 -42 -35 -77 -79 -77s-79 35 -79 81c0 69 75 118 201 118zM508 202c209 60 206 264 110 264c-60 0 -120 -76 -120 -187c0 -28 4 -54 10 -77zM327 313
c-50 -36 -141 -53 -141 -139c0 -50 31 -81 63 -81c36 0 74 41 78 103v117z" />
    <glyph glyph-name="eth" unicode="&#xf0;" horiz-adv-x="559" 
d="M251 736c82 0 151 -30 203 -85l82 40l18 -37l-73 -35c47 -67 73 -157 73 -265c0 -220 -109 -364 -287 -364c-145 0 -247 96 -247 234c0 133 92 222 228 222c59 0 107 -17 140 -48c-1 63 -9 119 -23 164l-85 -41l-17 37l87 42c-23 48 -57 75 -101 76c-11 0 -29 -1 -42 -14
c21 -19 33 -45 33 -73c0 -53 -40 -94 -97 -94c-54 0 -91 39 -91 94c0 78 75 147 199 147zM383 228c0 96 -35 155 -95 155c-63 0 -102 -66 -102 -171c0 -94 32 -160 92 -160c61 0 105 69 105 176z" />
    <glyph glyph-name="divide" unicode="&#xf7;" horiz-adv-x="455" 
d="M121 534c0 60 39 99 98 99c61 0 101 -39 101 -99c0 -59 -40 -99 -101 -99c-59 0 -98 40 -98 99zM-14 383h468v-41h-468v41zM121 183c0 60 39 99 98 99c61 0 101 -39 101 -99s-40 -99 -101 -99c-59 0 -98 39 -98 99z" />
    <glyph glyph-name="oslash" unicode="&#xf8;" horiz-adv-x="565" 
d="M28 259c0 162 110 270 273 270c48 0 93 -11 130 -28l14 17h54l-32 -39c64 -47 100 -122 100 -216c0 -161 -108 -273 -271 -273c-66 0 -123 18 -167 52l-33 -42h-53l53 69c-43 47 -68 112 -68 190zM194 257c0 -21 1 -40 3 -58l171 220c-19 31 -43 47 -71 47
c-61 0 -103 -83 -103 -209zM387 374l-179 -230c17 -58 49 -92 88 -92c63 0 105 83 105 207c0 45 -5 83 -14 115z" />
    <glyph glyph-name="thorn" unicode="&#xfe;" horiz-adv-x="587" 
d="M225 -179l10 -8v-20h-249v20l9 8c20 14 33 40 33 64v717c0 24 -13 50 -33 64l-9 8v20l166 31h41v-244c29 29 70 47 128 47c146 0 245 -109 245 -272c0 -160 -96 -267 -236 -267c-61 0 -106 20 -137 56v-160c0 -24 14 -50 32 -64zM298 51c61 0 103 80 103 210
c0 120 -37 204 -101 204c-60 0 -102 -72 -107 -184v-45c5 -112 46 -185 105 -185z" />
    <glyph glyph-name="OE" unicode="&#x152;" horiz-adv-x="1099" 
d="M20 362c0 225 148 374 363 374c59 0 113 -12 159 -32l-1 1v20h538l21 -165h-21l-14 21c-36 49 -99 82 -159 82h-157v-269h124c50 0 86 32 92 81v2h21v-228h-21v2c-6 49 -42 81 -92 81h-124v-270h157c60 0 123 33 159 82l14 22h21l-21 -166h-538v20
c-45 -20 -98 -30 -155 -30c-215 0 -366 144 -366 372zM186 359c0 -186 78 -307 196 -307c119 0 198 125 198 314c0 187 -77 308 -193 308c-119 0 -201 -125 -201 -315z" />
    <glyph glyph-name="oe" unicode="&#x153;" horiz-adv-x="903" 
d="M22 259c0 162 110 270 273 270c78 0 144 -25 189 -70c51 45 120 70 203 70c149 0 213 -81 213 -172c0 -113 -97 -198 -229 -198c-27 0 -55 4 -84 11c25 -49 69 -77 126 -77c96 0 155 79 165 114h21c-32 -130 -117 -217 -250 -217c-69 0 -130 24 -174 65
c-47 -41 -110 -65 -185 -65c-159 0 -268 109 -268 269zM572 202c210 60 207 264 110 264c-60 0 -120 -76 -120 -187c0 -28 4 -54 10 -77zM188 257c0 -124 41 -205 102 -205c63 0 105 83 105 207c0 126 -42 207 -104 207c-61 0 -103 -83 -103 -209z" />
    <glyph glyph-name="circumflexmod" unicode="&#x2c6;" horiz-adv-x="285" 
d="M191 739l93 -117l-94 -11l-35 74l-37 -74l-94 11l93 117h74z" />
    <glyph glyph-name="tildemod" unicode="&#x2dc;" horiz-adv-x="270" 
d="M71 642c-16 0 -31 -11 -39 -22c2 44 18 92 73 92c49 0 87 -40 127 -40c15 0 26 6 37 16c0 -54 -23 -87 -72 -87c-54 0 -93 41 -126 41z" />
    <glyph glyph-name="endash" unicode="&#x2013;" horiz-adv-x="439" 
d="M439 228h-417v52h417v-52z" />
    <glyph glyph-name="emdash" unicode="&#x2014;" horiz-adv-x="905" 
d="M905 228h-883v52h883v-52z" />
    <glyph glyph-name="quoteleft" unicode="&#x2018;" horiz-adv-x="238" 
d="M171 708c-15 -31 -20 -51 -22 -80c50 -3 90 -45 90 -97c0 -54 -41 -94 -96 -94c-56 0 -95 40 -95 99c0 70 58 158 93 191c7 6 16 9 24 4c8 -6 11 -14 6 -23z" />
    <glyph glyph-name="quoteright" unicode="&#x2019;" horiz-adv-x="237" 
d="M111 465c17 32 22 52 23 80c-50 3 -90 45 -90 98s40 93 96 93s95 -40 95 -98c0 -71 -57 -159 -93 -191c-7 -7 -15 -10 -24 -4c-9 5 -11 13 -7 22z" />
    <glyph glyph-name="quotesinglbase" unicode="&#x201a;" horiz-adv-x="232" 
d="M107 -90c17 32 22 51 23 80c-50 3 -90 44 -90 97c0 54 40 93 96 93s95 -39 95 -97c0 -72 -57 -160 -93 -192c-7 -6 -15 -9 -24 -4s-11 13 -7 23z" />
    <glyph glyph-name="quotedblleft" unicode="&#x201c;" horiz-adv-x="445" 
d="M379 708c-16 -31 -21 -51 -23 -80c51 -3 90 -45 90 -97c0 -54 -40 -94 -95 -94c-56 0 -96 40 -96 99c0 70 58 158 94 191c6 6 15 9 23 4c9 -6 11 -14 7 -23zM171 708c-15 -31 -20 -51 -22 -80c50 -3 90 -45 90 -97c0 -54 -41 -94 -96 -94c-56 0 -95 40 -95 99
c0 70 58 158 93 191c7 6 16 9 24 4c8 -6 11 -14 6 -23z" />
    <glyph glyph-name="quotedblright" unicode="&#x201d;" horiz-adv-x="444" 
d="M111 465c17 32 22 52 23 80c-50 3 -90 45 -90 98s40 93 96 93s95 -40 95 -98c0 -71 -57 -159 -93 -191c-7 -7 -15 -10 -24 -4c-9 5 -11 13 -7 22zM319 465c16 32 21 52 22 80c-49 3 -90 45 -90 98s41 93 97 93s94 -40 94 -98c0 -71 -57 -159 -92 -191
c-7 -7 -16 -10 -25 -4c-8 5 -10 13 -6 22z" />
    <glyph glyph-name="quotedblbase" unicode="&#x201e;" horiz-adv-x="439" 
d="M315 -90c16 32 21 51 22 80c-49 3 -90 44 -90 97c0 54 41 93 97 93s94 -39 94 -97c0 -72 -57 -160 -92 -192c-7 -6 -16 -9 -25 -4c-8 5 -10 13 -6 23zM107 -90c17 32 22 51 23 80c-50 3 -90 44 -90 97c0 54 40 93 96 93s95 -39 95 -97c0 -72 -57 -160 -93 -192
c-7 -6 -15 -9 -24 -4s-11 13 -7 23z" />
    <glyph glyph-name="dagger" unicode="&#x2020;" horiz-adv-x="481" 
d="M267 -104h-41v493h-214v41h214v295h41v-295h213v-41h-213v-493z" />
    <glyph glyph-name="daggerdbl" unicode="&#x2021;" horiz-adv-x="515" 
d="M301 -104h-41v285h-214v42h214v166h-214v41h214v297h41v-297h213v-41h-213v-166h213v-42h-213v-285z" />
    <glyph glyph-name="bullet" unicode="&#x2022;" horiz-adv-x="305" 
d="M46 363c0 71 58 129 130 129c71 0 128 -58 128 -129s-57 -129 -128 -129c-72 0 -130 58 -130 129z" />
    <glyph glyph-name="ellipsis" unicode="&#x2026;" horiz-adv-x="637" 
d="M446 85c0 52 43 95 96 95c52 0 95 -43 95 -95c0 -53 -43 -95 -95 -95c-53 0 -96 42 -96 95zM243 85c0 52 43 95 96 95c52 0 95 -43 95 -95c0 -53 -43 -95 -95 -95c-53 0 -96 42 -96 95zM40 85c0 52 43 95 95 95c53 0 96 -43 96 -95c0 -53 -43 -95 -96 -95
c-52 0 -95 42 -95 95z" />
    <glyph glyph-name="perthousand" unicode="&#x2030;" horiz-adv-x="979" 
d="M46 556c0 107 64 180 154 180c91 0 151 -73 151 -180c0 -108 -60 -180 -152 -180c-91 0 -153 73 -153 180zM200 0l239 725h63l-238 -725h-64zM126 553c0 -88 28 -147 70 -147c44 0 75 60 75 152c0 87 -29 148 -73 148c-43 0 -72 -61 -72 -153zM674 169
c0 109 64 180 154 180c92 0 151 -72 151 -179c0 -108 -60 -180 -152 -180c-91 0 -153 73 -153 179zM353 169c0 109 64 180 154 180s150 -72 150 -179c0 -108 -60 -180 -151 -180s-153 73 -153 179zM754 168c0 -89 28 -148 70 -148c44 0 75 60 75 151c0 87 -29 149 -73 149
c-42 0 -72 -62 -72 -152zM433 168c0 -89 28 -148 70 -148c44 0 75 60 75 151c0 87 -29 149 -73 149c-43 0 -72 -62 -72 -152z" />
    <glyph glyph-name="guilsinglleft" unicode="&#x2039;" horiz-adv-x="320" 
d="M239 158l-205 205l205 205l74 -74l-132 -131l132 -132z" />
    <glyph glyph-name="guilsinglright" unicode="&#x203a;" horiz-adv-x="320" 
d="M327 363l-205 -205l-74 73l132 132l-132 131l74 74z" />
    <glyph glyph-name="euro" unicode="&#x20ac;" horiz-adv-x="815" 
d="M65 435h99c30 185 169 301 371 301c156 0 247 -69 247 -157c0 -67 -53 -120 -119 -120c-65 0 -118 53 -118 118c0 39 18 73 45 95c-12 1 -23 2 -35 2c-132 0 -212 -99 -229 -239h208l-12 -52h-199v-4c0 -12 0 -25 1 -37h190l-12 -52h-171c24 -117 100 -197 225 -197
c107 0 189 58 228 145h21c-54 -155 -155 -248 -314 -248c-178 0 -305 118 -329 300h-128l11 52h112v15c0 9 0 17 1 26h-104z" />
    <glyph glyph-name="trademark" unicode="&#x2122;" horiz-adv-x="531" 
d="M522 491l3 -2v-7h-83v7l3 2c7 5 11 14 11 22v162l-78 -193h-24l-75 191v-160c0 -8 4 -17 11 -22l3 -2v-7h-49v7l2 2c8 5 12 14 12 22v181c0 9 -4 17 -12 22l-2 2v7h74l67 -169l69 169h71v-7l-3 -2c-6 -5 -10 -13 -10 -22v-181c0 -8 4 -17 10 -22zM176 491l3 -2v-7h-84v7
l3 2c6 5 11 14 11 22v192h-15c-20 0 -39 -13 -49 -30l-2 -5h-7l7 55h188l6 -55h-6l-2 5c-10 17 -29 30 -49 30h-15v-192c0 -8 4 -17 11 -22z" />
    <glyph glyph-name="glyph198" unicode="&#xf022;" horiz-adv-x="1397" 
d="M255 529c91 0 192 -26 226 -121c30 11 62 22 92 32c-5 8 -10 14 -17 19l-9 7v21l165 31h42v-15c44 14 64 26 115 26c98 0 151 -46 173 -107c27 66 85 107 156 107c100 0 157 -75 157 -186v-259c0 -26 8 -36 28 -36c0 0 15 0 24 14c0 -25 -37 -72 -112 -72
c-67 0 -106 36 -106 115v228c0 71 -25 117 -63 117c-41 0 -73 -52 -72 -130v-228c0 -24 13 -49 32 -64l10 -7v-21h-208v333c0 38 -10 117 -90 117c-20 0 -34 -5 -44 -10v-348c0 -24 13 -49 32 -64l9 -7v-21h-248v21l9 7c20 15 32 40 32 64v301c-32 -12 -65 -23 -96 -33
c0 -9 1 -17 1 -26v-250c0 -26 8 -36 28 -36c0 0 15 0 23 14c0 -25 -36 -72 -111 -72c-54 0 -92 25 -103 76c-33 -50 -87 -76 -147 -76c-92 0 -163 60 -163 152c0 149 185 176 258 198c10 3 27 8 48 16c-11 91 -75 119 -114 119c-14 0 -24 -3 -29 -7c17 -14 29 -36 29 -61
c0 -42 -35 -77 -79 -77s-79 35 -79 81c0 69 75 118 201 118zM327 191v113c-63 -20 -141 -50 -141 -130c0 -50 31 -81 63 -81c36 0 72 39 78 98z" />
    <glyph glyph-name="Agrave" unicode="&#xc0;" horiz-adv-x="663" 
d="M324 818l-94 118l95 10l62 -128h-63zM229 704l-1 1v20h118l247 -636c10 -22 29 -45 50 -58l19 -10v-21h-272v21l9 6c18 15 26 40 16 62l-23 59h-278l-24 -59c-8 -22 -2 -47 16 -62l9 -6v-21h-161v21l19 11c20 12 41 35 49 57l219 547c9 23 4 49 -12 68zM139 210h230
l-114 292z" />
    <glyph glyph-name="Aacute" unicode="&#xc1;" horiz-adv-x="663" 
d="M387 936l-93 -118h-64l62 128zM229 704l-1 1v20h118l247 -636c10 -22 29 -45 50 -58l19 -10v-21h-272v21l9 6c18 15 26 40 16 62l-23 59h-278l-24 -59c-8 -22 -2 -47 16 -62l9 -6v-21h-161v21l19 11c20 12 41 35 49 57l219 547c9 23 4 49 -12 68zM139 210h230l-114 292z
" />
    <glyph glyph-name="Acircumflex" unicode="&#xc2;" horiz-adv-x="663" 
d="M345 946l94 -117l-95 -11l-35 74l-36 -74l-95 11l94 117h73zM229 704l-1 1v20h118l247 -636c10 -22 29 -45 50 -58l19 -10v-21h-272v21l9 6c18 15 26 40 16 62l-23 59h-278l-24 -59c-8 -22 -2 -47 16 -62l9 -6v-21h-161v21l19 11c20 12 41 35 49 57l219 547
c9 23 4 49 -12 68zM139 210h230l-114 292z" />
    <glyph glyph-name="Atilde" unicode="&#xc3;" horiz-adv-x="663" 
d="M229 849c-16 0 -31 -11 -39 -22c2 44 18 92 72 92c50 0 87 -40 128 -40c14 0 26 6 37 16c0 -54 -24 -87 -72 -87c-54 0 -94 41 -126 41zM229 704l-1 1v20h118l247 -636c10 -22 29 -45 50 -58l19 -10v-21h-272v21l9 6c18 15 26 40 16 62l-23 59h-278l-24 -59
c-8 -22 -2 -47 16 -62l9 -6v-21h-161v21l19 11c20 12 41 35 49 57l219 547c9 23 4 49 -12 68zM139 210h230l-114 292z" />
    <glyph glyph-name="Adieresis" unicode="&#xc4;" horiz-adv-x="663" 
d="M314 870c0 38 25 62 62 62s62 -24 62 -62c0 -37 -25 -62 -62 -62s-62 25 -62 62zM179 870c0 38 25 62 62 62s62 -24 62 -62c0 -37 -25 -62 -62 -62s-62 25 -62 62zM229 704l-1 1v20h118l247 -636c10 -22 29 -45 50 -58l19 -10v-21h-272v21l9 6c18 15 26 40 16 62l-23 59
h-278l-24 -59c-8 -22 -2 -47 16 -62l9 -6v-21h-161v21l19 11c20 12 41 35 49 57l219 547c9 23 4 49 -12 68zM139 210h230l-114 292z" />
    <glyph glyph-name="Aring" unicode="&#xc5;" horiz-adv-x="663" 
d="M230 886c0 42 35 78 79 78c43 0 78 -36 78 -78c0 -44 -35 -78 -78 -78c-44 0 -79 34 -79 78zM283 886c0 -15 11 -26 26 -26c14 0 25 11 25 26c0 14 -11 26 -25 26c-15 0 -26 -12 -26 -26zM229 704l-1 1v20h118l247 -636c10 -22 29 -45 50 -58l19 -10v-21h-272v21l9 6
c18 15 26 40 16 62l-23 59h-278l-24 -59c-8 -22 -2 -47 16 -62l9 -6v-21h-161v21l19 11c20 12 41 35 49 57l219 547c9 23 4 49 -12 68zM139 210h230l-114 292z" />
    <glyph glyph-name="Ccedilla" unicode="&#xc7;" horiz-adv-x="661" 
d="M399 736c157 0 248 -69 248 -157c0 -67 -53 -120 -119 -120s-118 53 -118 118c0 39 17 73 44 95c-11 1 -23 2 -34 2c-150 0 -232 -125 -232 -295c0 -164 78 -286 233 -286c107 0 189 58 228 145h21c-50 -144 -141 -234 -281 -247l-8 -43c27 3 54 -21 54 -60
c0 -47 -39 -85 -98 -85c-36 0 -66 15 -79 30c-16 21 -10 51 7 51c4 0 8 -1 13 -5c14 -11 24 -32 57 -32c31 0 47 18 47 45c0 19 -8 34 -27 34h-21l14 64c-195 4 -326 150 -326 367c0 230 148 379 377 379z" />
    <glyph glyph-name="Egrave" unicode="&#xc8;" horiz-adv-x="580" 
d="M317 818l-93 118l94 10l62 -128h-63zM356 332h-125v-270h158c60 0 123 33 158 82l15 22h21l-21 -166h-538v21l9 7c20 15 33 40 33 64v541c0 24 -13 50 -33 64l-9 8v20h538l21 -165h-21l-15 21c-35 49 -98 82 -158 82h-158v-269h125c49 0 86 32 92 81v2h21v-228h-21v2
c-6 49 -43 81 -92 81z" />
    <glyph glyph-name="Eacute" unicode="&#xc9;" horiz-adv-x="580" 
d="M380 936l-93 -118h-63l62 128zM356 332h-125v-270h158c60 0 123 33 158 82l15 22h21l-21 -166h-538v21l9 7c20 15 33 40 33 64v541c0 24 -13 50 -33 64l-9 8v20h538l21 -165h-21l-15 21c-35 49 -98 82 -158 82h-158v-269h125c49 0 86 32 92 81v2h21v-228h-21v2
c-6 49 -43 81 -92 81z" />
    <glyph glyph-name="Ecircumflex" unicode="&#xca;" horiz-adv-x="580" 
d="M339 946l93 -117l-94 -11l-35 74l-37 -74l-94 11l93 117h74zM356 332h-125v-270h158c60 0 123 33 158 82l15 22h21l-21 -166h-538v21l9 7c20 15 33 40 33 64v541c0 24 -13 50 -33 64l-9 8v20h538l21 -165h-21l-15 21c-35 49 -98 82 -158 82h-158v-269h125
c49 0 86 32 92 81v2h21v-228h-21v2c-6 49 -43 81 -92 81z" />
    <glyph glyph-name="Edieresis" unicode="&#xcb;" horiz-adv-x="580" 
d="M307 870c0 38 25 62 62 62c38 0 63 -24 63 -62c0 -37 -25 -62 -63 -62c-37 0 -62 25 -62 62zM173 870c0 38 24 62 62 62c37 0 62 -24 62 -62c0 -37 -25 -62 -62 -62c-38 0 -62 25 -62 62zM356 332h-125v-270h158c60 0 123 33 158 82l15 22h21l-21 -166h-538v21l9 7
c20 15 33 40 33 64v541c0 24 -13 50 -33 64l-9 8v20h538l21 -165h-21l-15 21c-35 49 -98 82 -158 82h-158v-269h125c49 0 86 32 92 81v2h21v-228h-21v2c-6 49 -43 81 -92 81z" />
    <glyph glyph-name="Igrave" unicode="&#xcc;" horiz-adv-x="273" 
d="M164 818l-94 118l95 10l62 -128h-63zM263 28l10 -7v-21h-249v21l9 7c20 15 33 40 33 64v541c0 24 -13 50 -33 64l-9 8v20h249v-20l-10 -8c-18 -14 -32 -40 -32 -64v-541c0 -24 14 -49 32 -64z" />
    <glyph glyph-name="Iacute" unicode="&#xcd;" horiz-adv-x="273" 
d="M227 936l-93 -118h-64l62 128zM263 28l10 -7v-21h-249v21l9 7c20 15 33 40 33 64v541c0 24 -13 50 -33 64l-9 8v20h249v-20l-10 -8c-18 -14 -32 -40 -32 -64v-541c0 -24 14 -49 32 -64z" />
    <glyph glyph-name="Icircumflex" unicode="&#xce;" horiz-adv-x="273" 
d="M179 946l94 -117l-95 -11l-35 74l-36 -74l-95 11l94 117h73zM257 28l10 -7v-21h-249v21l9 7c20 15 33 40 33 64v541c0 24 -13 50 -33 64l-9 8v20h249v-20l-10 -8c-18 -14 -32 -40 -32 -64v-541c0 -24 14 -49 32 -64z" />
    <glyph glyph-name="Idieresis" unicode="&#xcf;" horiz-adv-x="273" 
d="M149 870c0 38 25 62 62 62s62 -24 62 -62c0 -37 -25 -62 -62 -62s-62 25 -62 62zM14 870c0 38 25 62 62 62s62 -24 62 -62c0 -37 -25 -62 -62 -62s-62 25 -62 62zM258 28l10 -7v-21h-249v21l9 7c20 15 33 40 33 64v541c0 24 -13 50 -33 64l-9 8v20h249v-20l-10 -8
c-18 -14 -32 -40 -32 -64v-541c0 -24 14 -49 32 -64z" />
    <glyph glyph-name="Ntilde" unicode="&#xd1;" horiz-adv-x="685" 
d="M275 849c-16 0 -31 -11 -39 -22c2 44 18 92 72 92c50 0 87 -40 128 -40c14 0 26 6 37 16c0 -54 -24 -87 -72 -87c-54 0 -94 41 -126 41zM645 633v-633h-64l-453 637v-545c0 -24 13 -49 32 -64l9 -7v-21h-145v21l9 7c20 15 33 40 33 64v541c0 25 -13 51 -33 66l-9 6v20
h245l314 -442v350c0 24 -13 50 -33 64l-9 8v20h145v-20l-8 -8c-20 -14 -33 -40 -33 -64z" />
    <glyph glyph-name="Ograve" unicode="&#xd2;" horiz-adv-x="746" 
d="M398 818l-93 118l94 10l62 -128h-63zM20 362c0 225 148 374 363 374c216 0 362 -153 362 -377c0 -225 -146 -369 -359 -369c-215 0 -366 144 -366 372zM186 359c0 -186 78 -307 196 -307c119 0 198 125 198 314c0 187 -77 308 -193 308c-119 0 -201 -125 -201 -315z" />
    <glyph glyph-name="Oacute" unicode="&#xd3;" horiz-adv-x="746" 
d="M461 936l-93 -118h-63l62 128zM20 362c0 225 148 374 363 374c216 0 362 -153 362 -377c0 -225 -146 -369 -359 -369c-215 0 -366 144 -366 372zM186 359c0 -186 78 -307 196 -307c119 0 198 125 198 314c0 187 -77 308 -193 308c-119 0 -201 -125 -201 -315z" />
    <glyph glyph-name="Ocircumflex" unicode="&#xd4;" horiz-adv-x="746" 
d="M420 946l93 -117l-94 -11l-35 74l-37 -74l-94 11l93 117h74zM20 362c0 225 148 374 363 374c216 0 362 -153 362 -377c0 -225 -146 -369 -359 -369c-215 0 -366 144 -366 372zM186 359c0 -186 78 -307 196 -307c119 0 198 125 198 314c0 187 -77 308 -193 308
c-119 0 -201 -125 -201 -315z" />
    <glyph glyph-name="Otilde" unicode="&#xd5;" horiz-adv-x="746" 
d="M304 849c-17 0 -31 -11 -40 -22c2 44 18 92 73 92c50 0 87 -40 127 -40c15 0 26 6 38 16c0 -54 -24 -87 -73 -87c-54 0 -93 41 -125 41zM20 362c0 225 148 374 363 374c216 0 362 -153 362 -377c0 -225 -146 -369 -359 -369c-215 0 -366 144 -366 372zM186 359
c0 -186 78 -307 196 -307c119 0 198 125 198 314c0 187 -77 308 -193 308c-119 0 -201 -125 -201 -315z" />
    <glyph glyph-name="Odieresis" unicode="&#xd6;" horiz-adv-x="746" 
d="M388 870c0 38 25 62 62 62c38 0 63 -24 63 -62c0 -37 -25 -62 -63 -62c-37 0 -62 25 -62 62zM254 870c0 38 24 62 62 62c37 0 62 -24 62 -62c0 -37 -25 -62 -62 -62c-38 0 -62 25 -62 62zM20 362c0 225 148 374 363 374c216 0 362 -153 362 -377
c0 -225 -146 -369 -359 -369c-215 0 -366 144 -366 372zM186 359c0 -186 78 -307 196 -307c119 0 198 125 198 314c0 187 -77 308 -193 308c-119 0 -201 -125 -201 -315z" />
    <glyph glyph-name="Scaron" unicode="&#x160;" horiz-adv-x="598" 
d="M443 936l-93 -118h-74l-93 118l94 10l37 -74l35 74zM293 52c79 0 149 47 149 105c0 140 -404 168 -404 387c0 114 111 192 276 192c152 0 256 -65 256 -163c0 -61 -42 -104 -103 -104c-62 0 -105 45 -105 109c0 27 8 61 35 83c-11 1 -23 13 -64 13
c-80 0 -137 -41 -137 -93c0 -138 404 -129 404 -374c0 -131 -116 -217 -282 -217c-124 0 -290 47 -290 167c0 67 53 120 116 120c69 0 121 -63 121 -129c0 -38 -17 -62 -45 -84c11 -5 43 -12 73 -12z" />
    <glyph glyph-name="Ugrave" unicode="&#xd9;" horiz-adv-x="673" 
d="M357 818l-94 118l95 10l62 -128h-63zM52 277v356c0 24 -13 50 -33 64l-9 8v20h249v-20l-10 -8c-18 -14 -32 -40 -32 -64v-407c0 -105 70 -174 169 -174c113 0 183 90 183 195v386c0 24 -13 50 -33 64l-9 8v20h145v-20l-8 -8c-20 -14 -33 -40 -33 -64v-356
c0 -172 -114 -287 -289 -287s-290 115 -290 287z" />
    <glyph glyph-name="Uacute" unicode="&#xda;" horiz-adv-x="673" 
d="M420 936l-93 -118h-64l62 128zM52 277v356c0 24 -13 50 -33 64l-9 8v20h249v-20l-10 -8c-18 -14 -32 -40 -32 -64v-407c0 -105 70 -174 169 -174c113 0 183 90 183 195v386c0 24 -13 50 -33 64l-9 8v20h145v-20l-8 -8c-20 -14 -33 -40 -33 -64v-356
c0 -172 -114 -287 -289 -287s-290 115 -290 287z" />
    <glyph glyph-name="Ucircumflex" unicode="&#xdb;" horiz-adv-x="673" 
d="M378 946l94 -117l-95 -11l-35 74l-36 -74l-95 11l94 117h73zM52 277v356c0 24 -13 50 -33 64l-9 8v20h249v-20l-10 -8c-18 -14 -32 -40 -32 -64v-407c0 -105 70 -174 169 -174c113 0 183 90 183 195v386c0 24 -13 50 -33 64l-9 8v20h145v-20l-8 -8
c-20 -14 -33 -40 -33 -64v-356c0 -172 -114 -287 -289 -287s-290 115 -290 287z" />
    <glyph glyph-name="Udieresis" unicode="&#xdc;" horiz-adv-x="673" 
d="M347 870c0 38 25 62 62 62s62 -24 62 -62c0 -37 -25 -62 -62 -62s-62 25 -62 62zM212 870c0 38 25 62 62 62s62 -24 62 -62c0 -37 -25 -62 -62 -62s-62 25 -62 62zM52 277v356c0 24 -13 50 -33 64l-9 8v20h249v-20l-10 -8c-18 -14 -32 -40 -32 -64v-407
c0 -105 70 -174 169 -174c113 0 183 90 183 195v386c0 24 -13 50 -33 64l-9 8v20h145v-20l-8 -8c-20 -14 -33 -40 -33 -64v-356c0 -172 -114 -287 -289 -287s-290 115 -290 287z" />
    <glyph glyph-name="Ydieresis" unicode="&#x178;" horiz-adv-x="589" 
d="M276 870c0 38 25 62 62 62s62 -24 62 -62c0 -37 -25 -62 -62 -62s-62 25 -62 62zM141 870c0 38 25 62 62 62s62 -24 62 -62c0 -37 -25 -62 -62 -62s-62 25 -62 62zM217 638l107 -198l107 198c11 21 8 47 -10 65l-2 2v20h169v-20l-26 -14c-21 -10 -44 -32 -56 -53
l-144 -267v-279c0 -24 14 -49 33 -64l9 -7v-21h-249v21l9 7c20 15 33 40 33 64v236l-168 310c-12 21 -33 43 -54 54l-23 13v20h282v-20l-5 -4c-18 -17 -23 -42 -12 -63z" />
    <glyph glyph-name="Yacute" unicode="&#xdd;" horiz-adv-x="589" 
d="M349 936l-93 -118h-64l62 128zM217 638l107 -198l107 198c11 21 8 47 -10 65l-2 2v20h169v-20l-26 -14c-21 -10 -44 -32 -56 -53l-144 -267v-279c0 -24 14 -49 33 -64l9 -7v-21h-249v21l9 7c20 15 33 40 33 64v236l-168 310c-12 21 -33 43 -54 54l-23 13v20h282v-20
l-5 -4c-18 -17 -23 -42 -12 -63z" />
    <glyph glyph-name="Zcaron" unicode="&#x17d;" horiz-adv-x="528" 
d="M399 936l-93 -118h-74l-93 118l94 10l37 -74l35 74zM199 62h135c61 0 124 33 158 82l14 22h21l-21 -166h-496v62l329 601h-135c-60 0 -123 -33 -158 -82l-15 -21h-21l21 165h496v-62z" />
    <glyph glyph-name="agrave" unicode="&#xe0;" horiz-adv-x="535" 
d="M293 611l-94 118l95 10l62 -128h-63zM255 529c112 0 238 -39 238 -195v-250c0 -26 8 -36 28 -36c0 0 15 0 23 14c0 -25 -36 -72 -111 -72c-54 0 -92 25 -103 76c-33 -50 -87 -76 -147 -76c-92 0 -163 60 -163 150c0 184 293 164 300 247c-20 66 -73 88 -108 88
c-14 0 -24 -3 -29 -7c17 -14 29 -36 29 -61c0 -42 -35 -77 -79 -77s-79 35 -79 81c0 69 75 118 201 118zM327 191v122c-50 -36 -141 -53 -141 -139c0 -50 31 -81 63 -81c36 0 72 39 78 98z" />
    <glyph glyph-name="aacute" unicode="&#xe1;" horiz-adv-x="535" 
d="M356 729l-93 -118h-64l62 128zM255 529c112 0 238 -39 238 -195v-250c0 -26 8 -36 28 -36c0 0 15 0 23 14c0 -25 -36 -72 -111 -72c-54 0 -92 25 -103 76c-33 -50 -87 -76 -147 -76c-92 0 -163 60 -163 150c0 184 293 164 300 247c-20 66 -73 88 -108 88
c-14 0 -24 -3 -29 -7c17 -14 29 -36 29 -61c0 -42 -35 -77 -79 -77s-79 35 -79 81c0 69 75 118 201 118zM327 191v122c-50 -36 -141 -53 -141 -139c0 -50 31 -81 63 -81c36 0 72 39 78 98z" />
    <glyph glyph-name="acircumflex" unicode="&#xe2;" horiz-adv-x="535" 
d="M314 739l94 -117l-95 -11l-35 74l-36 -74l-95 11l94 117h73zM255 529c112 0 238 -39 238 -195v-250c0 -26 8 -36 28 -36c0 0 15 0 23 14c0 -25 -36 -72 -111 -72c-54 0 -92 25 -103 76c-33 -50 -87 -76 -147 -76c-92 0 -163 60 -163 150c0 184 293 164 300 247
c-20 66 -73 88 -108 88c-14 0 -24 -3 -29 -7c17 -14 29 -36 29 -61c0 -42 -35 -77 -79 -77s-79 35 -79 81c0 69 75 118 201 118zM327 191v122c-50 -36 -141 -53 -141 -139c0 -50 31 -81 63 -81c36 0 72 39 78 98z" />
    <glyph glyph-name="atilde" unicode="&#xe3;" horiz-adv-x="535" 
d="M198 642c-16 0 -31 -11 -39 -22c2 44 18 92 72 92c50 0 87 -40 128 -40c14 0 26 6 37 16c0 -54 -24 -87 -72 -87c-54 0 -94 41 -126 41zM255 529c112 0 238 -39 238 -195v-250c0 -26 8 -36 28 -36c0 0 15 0 23 14c0 -25 -36 -72 -111 -72c-54 0 -92 25 -103 76
c-33 -50 -87 -76 -147 -76c-92 0 -163 60 -163 150c0 184 293 164 300 247c-20 66 -73 88 -108 88c-14 0 -24 -3 -29 -7c17 -14 29 -36 29 -61c0 -42 -35 -77 -79 -77s-79 35 -79 81c0 69 75 118 201 118zM327 191v122c-50 -36 -141 -53 -141 -139c0 -50 31 -81 63 -81
c36 0 72 39 78 98z" />
    <glyph glyph-name="adieresis" unicode="&#xe4;" horiz-adv-x="535" 
d="M283 663c0 38 25 62 62 62s62 -24 62 -62c0 -37 -25 -62 -62 -62s-62 25 -62 62zM148 663c0 38 25 62 62 62s62 -24 62 -62c0 -37 -25 -62 -62 -62s-62 25 -62 62zM255 529c112 0 238 -39 238 -195v-250c0 -26 8 -36 28 -36c0 0 15 0 23 14c0 -25 -36 -72 -111 -72
c-54 0 -92 25 -103 76c-33 -50 -87 -76 -147 -76c-92 0 -163 60 -163 150c0 184 293 164 300 247c-20 66 -73 88 -108 88c-14 0 -24 -3 -29 -7c17 -14 29 -36 29 -61c0 -42 -35 -77 -79 -77s-79 35 -79 81c0 69 75 118 201 118zM327 191v122c-50 -36 -141 -53 -141 -139
c0 -50 31 -81 63 -81c36 0 72 39 78 98z" />
    <glyph glyph-name="aring" unicode="&#xe5;" horiz-adv-x="535" 
d="M199 679c0 42 35 78 79 78c43 0 78 -36 78 -78c0 -44 -35 -78 -78 -78c-44 0 -79 34 -79 78zM252 679c0 -15 11 -26 26 -26c14 0 25 11 25 26c0 14 -11 26 -25 26c-15 0 -26 -12 -26 -26zM255 529c112 0 238 -39 238 -195v-250c0 -26 8 -36 28 -36c0 0 15 0 23 14
c0 -25 -36 -72 -111 -72c-54 0 -92 25 -103 76c-33 -50 -87 -76 -147 -76c-92 0 -163 60 -163 150c0 184 293 164 300 247c-20 66 -73 88 -108 88c-14 0 -24 -3 -29 -7c17 -14 29 -36 29 -61c0 -42 -35 -77 -79 -77s-79 35 -79 81c0 69 75 118 201 118zM327 191v122
c-50 -36 -141 -53 -141 -139c0 -50 31 -81 63 -81c36 0 72 39 78 98z" />
    <glyph glyph-name="ccedilla" unicode="&#xe7;" horiz-adv-x="519" 
d="M299 529c117 0 204 -61 204 -137c0 -53 -40 -92 -90 -92c-51 0 -91 39 -91 89c0 29 13 54 33 70c-5 2 -19 7 -38 7c-71 0 -131 -76 -131 -187c0 -110 59 -186 151 -186c96 0 155 79 165 114h21c-25 -101 -83 -200 -206 -215l-8 -44c27 3 54 -21 54 -60
c0 -47 -39 -85 -98 -85c-36 0 -66 15 -79 30c-16 21 -10 51 7 51c4 0 8 -1 13 -5c14 -11 24 -32 57 -32c31 0 47 18 47 45c0 19 -8 34 -27 34h-21l14 64c-134 4 -256 99 -256 261c0 156 112 278 279 278z" />
    <glyph glyph-name="egrave" unicode="&#xe8;" horiz-adv-x="529" 
d="M291 611l-94 118l95 10l62 -128h-63zM313 529c148 0 213 -81 213 -172c0 -113 -97 -198 -229 -198c-27 0 -55 4 -84 11c25 -49 69 -77 126 -77c96 0 155 79 165 114h21c-32 -130 -117 -217 -250 -217c-146 0 -253 103 -253 261c0 166 117 278 291 278zM198 202
c210 60 206 264 110 264c-60 0 -120 -76 -120 -187c0 -28 4 -54 10 -77z" />
    <glyph glyph-name="eacute" unicode="&#xe9;" horiz-adv-x="529" 
d="M354 729l-93 -118h-64l62 128zM313 529c148 0 213 -81 213 -172c0 -113 -97 -198 -229 -198c-27 0 -55 4 -84 11c25 -49 69 -77 126 -77c96 0 155 79 165 114h21c-32 -130 -117 -217 -250 -217c-146 0 -253 103 -253 261c0 166 117 278 291 278zM198 202
c210 60 206 264 110 264c-60 0 -120 -76 -120 -187c0 -28 4 -54 10 -77z" />
    <glyph glyph-name="ecircumflex" unicode="&#xea;" horiz-adv-x="529" 
d="M312 739l94 -117l-95 -11l-35 74l-36 -74l-95 11l94 117h73zM313 529c148 0 213 -81 213 -172c0 -113 -97 -198 -229 -198c-27 0 -55 4 -84 11c25 -49 69 -77 126 -77c96 0 155 79 165 114h21c-32 -130 -117 -217 -250 -217c-146 0 -253 103 -253 261
c0 166 117 278 291 278zM198 202c210 60 206 264 110 264c-60 0 -120 -76 -120 -187c0 -28 4 -54 10 -77z" />
    <glyph glyph-name="edieresis" unicode="&#xeb;" horiz-adv-x="529" 
d="M281 663c0 38 25 62 62 62s62 -24 62 -62c0 -37 -25 -62 -62 -62s-62 25 -62 62zM146 663c0 38 25 62 62 62s62 -24 62 -62c0 -37 -25 -62 -62 -62s-62 25 -62 62zM313 529c148 0 213 -81 213 -172c0 -113 -97 -198 -229 -198c-27 0 -55 4 -84 11c25 -49 69 -77 126 -77
c96 0 155 79 165 114h21c-32 -130 -117 -217 -250 -217c-146 0 -253 103 -253 261c0 166 117 278 291 278zM198 202c210 60 206 264 110 264c-60 0 -120 -76 -120 -187c0 -28 4 -54 10 -77z" />
    <glyph glyph-name="igrave" unicode="&#xec;" horiz-adv-x="265" 
d="M158 611l-94 118l95 10l62 -128h-63zM259 28l10 -7v-21h-249v21l9 7c20 15 33 40 33 64v303c0 24 -13 50 -33 64l-9 7v21l166 31h41v-426c0 -24 14 -49 32 -64z" />
    <glyph glyph-name="iacute" unicode="&#xed;" horiz-adv-x="265" 
d="M221 729l-93 -118h-64l62 128zM259 28l10 -7v-21h-249v21l9 7c20 15 33 40 33 64v303c0 24 -13 50 -33 64l-9 7v21l166 31h41v-426c0 -24 14 -49 32 -64z" />
    <glyph glyph-name="icircumflex" unicode="&#xee;" horiz-adv-x="265" 
d="M171 739l94 -117l-95 -11l-35 74l-36 -74l-95 11l94 117h73zM251 28l10 -7v-21h-249v21l9 7c20 15 33 40 33 64v303c0 24 -13 50 -33 64l-9 7v21l166 31h41v-426c0 -24 14 -49 32 -64z" />
    <glyph glyph-name="idieresis" unicode="&#xef;" horiz-adv-x="265" 
d="M141 663c0 38 25 62 62 62s62 -24 62 -62c0 -37 -25 -62 -62 -62s-62 25 -62 62zM6 663c0 38 25 62 62 62s62 -24 62 -62c0 -37 -25 -62 -62 -62s-62 25 -62 62zM252 28l10 -7v-21h-249v21l9 7c20 15 33 40 33 64v303c0 24 -13 50 -33 64l-9 7v21l166 31h41v-426
c0 -24 14 -49 32 -64z" />
    <glyph glyph-name="ntilde" unicode="&#xf1;" horiz-adv-x="601" 
d="M231 642c-16 0 -31 -11 -39 -22c2 44 18 92 72 92c50 0 87 -40 128 -40c14 0 26 6 37 16c0 -54 -24 -87 -72 -87c-54 0 -94 41 -126 41zM393 105v228c0 73 -28 117 -78 117c-47 0 -81 -43 -88 -109v-249c0 -24 14 -49 32 -64l10 -7v-21h-249v21l9 7c20 15 33 40 33 64
v303c0 24 -13 50 -33 64l-9 7v21l166 31h41v-79c36 56 96 90 167 90c107 0 165 -75 165 -186v-259c0 -26 8 -36 28 -36c0 0 15 0 24 14c0 -25 -37 -72 -112 -72c-66 0 -106 36 -106 115z" />
    <glyph glyph-name="ograve" unicode="&#xf2;" 
d="M307 611l-94 118l95 10l62 -128h-63zM22 259c0 162 110 270 273 270c161 0 266 -107 266 -266c0 -161 -108 -273 -271 -273c-159 0 -268 109 -268 269zM188 257c0 -124 41 -205 102 -205c63 0 105 83 105 207c0 126 -42 207 -104 207c-61 0 -103 -83 -103 -209z" />
    <glyph glyph-name="oacute" unicode="&#xf3;" 
d="M370 729l-93 -118h-64l62 128zM22 259c0 162 110 270 273 270c161 0 266 -107 266 -266c0 -161 -108 -273 -271 -273c-159 0 -268 109 -268 269zM188 257c0 -124 41 -205 102 -205c63 0 105 83 105 207c0 126 -42 207 -104 207c-61 0 -103 -83 -103 -209z" />
    <glyph glyph-name="ocircumflex" unicode="&#xf4;" 
d="M328 739l94 -117l-95 -11l-35 74l-36 -74l-95 11l94 117h73zM22 259c0 162 110 270 273 270c161 0 266 -107 266 -266c0 -161 -108 -273 -271 -273c-159 0 -268 109 -268 269zM188 257c0 -124 41 -205 102 -205c63 0 105 83 105 207c0 126 -42 207 -104 207
c-61 0 -103 -83 -103 -209z" />
    <glyph glyph-name="otilde" unicode="&#xf5;" 
d="M212 642c-16 0 -31 -11 -39 -22c2 44 18 92 72 92c50 0 87 -40 128 -40c14 0 26 6 37 16c0 -54 -24 -87 -72 -87c-54 0 -94 41 -126 41zM22 259c0 162 110 270 273 270c161 0 266 -107 266 -266c0 -161 -108 -273 -271 -273c-159 0 -268 109 -268 269zM188 257
c0 -124 41 -205 102 -205c63 0 105 83 105 207c0 126 -42 207 -104 207c-61 0 -103 -83 -103 -209z" />
    <glyph glyph-name="odieresis" unicode="&#xf6;" 
d="M297 663c0 38 25 62 62 62s62 -24 62 -62c0 -37 -25 -62 -62 -62s-62 25 -62 62zM162 663c0 38 25 62 62 62s62 -24 62 -62c0 -37 -25 -62 -62 -62s-62 25 -62 62zM22 259c0 162 110 270 273 270c161 0 266 -107 266 -266c0 -161 -108 -273 -271 -273
c-159 0 -268 109 -268 269zM188 257c0 -124 41 -205 102 -205c63 0 105 83 105 207c0 126 -42 207 -104 207c-61 0 -103 -83 -103 -209z" />
    <glyph glyph-name="scaron" unicode="&#x161;" horiz-adv-x="468" 
d="M374 729l-93 -118h-74l-93 118l94 10l37 -74l35 74zM303 100c0 96 -258 128 -258 282c0 90 84 147 212 147c131 0 197 -61 197 -120c0 -41 -31 -72 -70 -72c-40 0 -71 31 -71 70c0 22 10 43 26 55c-8 9 -35 18 -64 18c-46 0 -72 -24 -72 -53c0 -93 259 -119 259 -287
c0 -94 -81 -150 -217 -150c-144 0 -225 62 -225 130c0 46 35 82 80 82c43 0 79 -36 79 -80c0 -25 -12 -46 -29 -61c10 -7 28 -16 66 -16c60 0 87 23 87 55z" />
    <glyph glyph-name="ugrave" unicode="&#xf9;" horiz-adv-x="597" 
d="M318 611l-94 118l95 10l62 -128h-63zM547 83c0 -25 8 -35 28 -35c0 0 15 0 24 14c0 -25 -37 -72 -112 -72c-59 0 -98 29 -105 90c-35 -56 -95 -90 -168 -90c-106 0 -164 74 -164 185v220c0 24 -13 50 -33 64l-9 7v21l166 31h41v-332c0 -74 28 -118 78 -118
c47 0 81 41 88 106v229c-3 22 -14 44 -32 56l-9 7v21l165 31h42v-435z" />
    <glyph glyph-name="uacute" unicode="&#xfa;" horiz-adv-x="597" 
d="M381 729l-93 -118h-64l62 128zM547 83c0 -25 8 -35 28 -35c0 0 15 0 24 14c0 -25 -37 -72 -112 -72c-59 0 -98 29 -105 90c-35 -56 -95 -90 -168 -90c-106 0 -164 74 -164 185v220c0 24 -13 50 -33 64l-9 7v21l166 31h41v-332c0 -74 28 -118 78 -118c47 0 81 41 88 106
v229c-3 22 -14 44 -32 56l-9 7v21l165 31h42v-435z" />
    <glyph glyph-name="ucircumflex" unicode="&#xfb;" horiz-adv-x="597" 
d="M339 739l94 -117l-95 -11l-35 74l-36 -74l-95 11l94 117h73zM547 83c0 -25 8 -35 28 -35c0 0 15 0 24 14c0 -25 -37 -72 -112 -72c-59 0 -98 29 -105 90c-35 -56 -95 -90 -168 -90c-106 0 -164 74 -164 185v220c0 24 -13 50 -33 64l-9 7v21l166 31h41v-332
c0 -74 28 -118 78 -118c47 0 81 41 88 106v229c-3 22 -14 44 -32 56l-9 7v21l165 31h42v-435z" />
    <glyph glyph-name="udieresis" unicode="&#xfc;" horiz-adv-x="597" 
d="M308 663c0 38 25 62 62 62s62 -24 62 -62c0 -37 -25 -62 -62 -62s-62 25 -62 62zM173 663c0 38 25 62 62 62s62 -24 62 -62c0 -37 -25 -62 -62 -62s-62 25 -62 62zM547 83c0 -25 8 -35 28 -35c0 0 15 0 24 14c0 -25 -37 -72 -112 -72c-59 0 -98 29 -105 90
c-35 -56 -95 -90 -168 -90c-106 0 -164 74 -164 185v220c0 24 -13 50 -33 64l-9 7v21l166 31h41v-332c0 -74 28 -118 78 -118c47 0 81 41 88 106v229c-3 22 -14 44 -32 56l-9 7v21l165 31h42v-435z" />
    <glyph glyph-name="yacute" unicode="&#xfd;" horiz-adv-x="511" 
d="M319 729l-93 -118h-64l62 128zM-3 490l-9 7v21h207v-312c0 -96 13 -138 66 -138c97 0 161 134 158 337c-57 -7 -101 29 -101 74c0 39 33 71 79 71c39 0 90 -25 82 -192c-16 -284 -180 -586 -369 -586c-86 0 -140 49 -140 115c0 55 36 91 81 91s82 -36 82 -81
c0 -26 -13 -48 -30 -63c4 -4 11 -6 22 -6c69 0 152 103 212 212c-39 -32 -86 -50 -136 -50c-105 0 -172 78 -172 206v230c0 24 -12 50 -32 64z" />
    <glyph glyph-name="ydieresis" unicode="&#xff;" horiz-adv-x="511" 
d="M246 663c0 38 25 62 62 62s62 -24 62 -62c0 -37 -25 -62 -62 -62s-62 25 -62 62zM111 663c0 38 25 62 62 62s62 -24 62 -62c0 -37 -25 -62 -62 -62s-62 25 -62 62zM-3 490l-9 7v21h207v-312c0 -96 13 -138 66 -138c97 0 161 134 158 337c-57 -7 -101 29 -101 74
c0 39 33 71 79 71c39 0 90 -25 82 -192c-16 -284 -180 -586 -369 -586c-86 0 -140 49 -140 115c0 55 36 91 81 91s82 -36 82 -81c0 -26 -13 -48 -30 -63c4 -4 11 -6 22 -6c69 0 152 103 212 212c-39 -32 -86 -50 -136 -50c-105 0 -172 78 -172 206v230c0 24 -12 50 -32 64z
" />
    <glyph glyph-name="zcaron" unicode="&#x17e;" horiz-adv-x="449" 
d="M361 729l-94 -118h-73l-94 118l95 10l36 -74l35 74zM205 62h89c43 0 90 22 118 55l5 7h21l-21 -124h-405v62l244 394h-90c-42 0 -89 -22 -117 -55l-6 -7h-21l21 124h405v-62z" />
  </font>
</defs>
</svg>
